<svg xmlns="http://www.w3.org/2000/svg" viewBox="0 0 74.99 53.87"><defs><style>.cls-1{fill:#8cc63f;}</style></defs><g id="Layer_2" data-name="Layer 2"><g id="Layer_1-2" data-name="Layer 1"><polygon class="cls-1" points="25.8 19.25 35.89 19.25 36.91 20.73 26.83 20.73 25.8 19.25"/><polygon class="cls-1" points="49.19 19.25 39.1 19.25 38.08 20.73 48.16 20.73 49.19 19.25"/><polygon class="cls-1" points="39.97 34.85 39.97 23.59 46.17 23.59 47.49 21.7 38.08 21.7 38.08 23.34 38.08 23.59 38.08 37.58 39.97 34.85"/><polygon class="cls-1" points="35.02 37.57 35.02 23.59 28.81 23.59 27.5 21.7 36.91 21.7 36.91 23.34 36.91 23.59 36.91 40.3 35.02 37.57"/><path class="cls-1" d="M37.49,53.87,15.17,42.13,15.25,5H26V0H49V5H59.82l-.08,37.17ZM16.17,41.52,37.49,52.74,58.74,41.52,58.82,6H48V1H27V6H16.25Z"/><path class="cls-1" d="M37.49,43.28A16.38,16.38,0,1,1,53.87,26.9,16.39,16.39,0,0,1,37.49,43.28Zm0-31.75A15.38,15.38,0,1,0,52.87,26.9,15.39,15.39,0,0,0,37.49,11.53Z"/><rect class="cls-1" x="5.79" y="23.33" width="9.87" height="1"/><path class="cls-1" d="M3.15,27V26a2.15,2.15,0,0,0,0-4.29v-1a3.15,3.15,0,0,1,0,6.29Z"/><path class="cls-1" d="M3.15,27a3.15,3.15,0,1,1,0-6.29v1a2.15,2.15,0,1,0,0,4.29Z"/><rect class="cls-1" x="9.57" y="15.06" width="6.02" height="1"/><path class="cls-1" d="M6.93,18.7v-1a2.15,2.15,0,0,0,0-4.29v-1a3.15,3.15,0,0,1,0,6.29Z"/><path class="cls-1" d="M6.93,18.7a3.15,3.15,0,1,1,0-6.29v1a2.15,2.15,0,1,0,0,4.29Z"/><rect class="cls-1" x="9.57" y="31.6" width="6.02" height="1"/><path class="cls-1" d="M6.93,35.24v-1a2.15,2.15,0,0,0,0-4.29V29a3.15,3.15,0,0,1,0,6.29Z"/><path class="cls-1" d="M6.93,35.24a3.15,3.15,0,1,1,0-6.29v1a2.15,2.15,0,1,0,0,4.29Z"/><rect class="cls-1" x="59.32" y="23.33" width="9.87" height="1"/><path class="cls-1" d="M71.84,27a3.15,3.15,0,1,1,0-6.29v1a2.15,2.15,0,1,0,0,4.29Z"/><path class="cls-1" d="M71.84,27V26a2.15,2.15,0,1,0,0-4.29v-1a3.15,3.15,0,1,1,0,6.29Z"/><rect class="cls-1" x="59.39" y="31.6" width="6.02" height="1"/><path class="cls-1" d="M68.06,35.24a3.15,3.15,0,0,1,0-6.29v1a2.15,2.15,0,0,0,0,4.29Z"/><path class="cls-1" d="M68.06,35.24v-1a2.15,2.15,0,1,0,0-4.29V29a3.15,3.15,0,1,1,0,6.29Z"/><rect class="cls-1" x="59.39" y="15.06" width="6.02" height="1"/><path class="cls-1" d="M68.06,18.7a3.15,3.15,0,0,1,0-6.29v1a2.15,2.15,0,0,0,0,4.29Z"/><path class="cls-1" d="M68.06,18.7v-1a2.15,2.15,0,1,0,0-4.29v-1a3.15,3.15,0,1,1,0,6.29Z"/></g></g></svg>