<svg xmlns="http://www.w3.org/2000/svg" viewBox="0 0 64.71 62.47"><defs><style>.cls-1{fill:#8cc63f;}</style></defs><g id="Layer_2" data-name="Layer 2"><g id="Layer_1-2" data-name="Layer 1"><path class="cls-1" d="M31.28,42.44a5.79,5.79,0,1,1,5.79-5.79A5.8,5.8,0,0,1,31.28,42.44Zm0-10.58a4.79,4.79,0,1,0,4.79,4.79A4.79,4.79,0,0,0,31.28,31.86Z"/><path class="cls-1" d="M31.28,49.24A12.6,12.6,0,1,1,43.87,36.65,12.62,12.62,0,0,1,31.28,49.24Zm0-24.19a11.6,11.6,0,1,0,11.59,11.6A11.61,11.61,0,0,0,31.28,25.05Z"/><path class="cls-1" d="M34.94,13.09a6,6,0,0,1-.73,0,6.46,6.46,0,0,1-4.39-2.41,6.55,6.55,0,0,1,1-9.2h0a6.55,6.55,0,0,1,9.2,1,6.47,6.47,0,0,1,1.4,4.81,6.55,6.55,0,0,1-6.49,5.83ZM31.45,2.22h0a5.55,5.55,0,1,0,7.8.85A5.55,5.55,0,0,0,31.45,2.22Z"/><path class="cls-1" d="M58.92,37.14a5.79,5.79,0,0,1-3.63-10.3h0a5.79,5.79,0,1,1,3.63,10.3Zm0-10.58a4.75,4.75,0,0,0-3,1.06h0a4.77,4.77,0,1,0,3.52-1Z"/><path class="cls-1" d="M5.8,59.44A5.78,5.78,0,0,1,0,53a5.71,5.71,0,0,1,2.13-3.88A5.79,5.79,0,1,1,5.8,59.44Zm0-10.58a4.77,4.77,0,0,0-3,1.06h0a4.79,4.79,0,1,0,6,7.47,4.8,4.8,0,0,0,.74-6.73,4.75,4.75,0,0,0-3.22-1.77A4.58,4.58,0,0,0,5.78,48.86Z"/><path class="cls-1" d="M12.26,23.73l-.39,0a3.53,3.53,0,0,1-1.82-6.26h0a3.53,3.53,0,0,1,5.71,3.14,3.54,3.54,0,0,1-3.5,3.14Zm-1.58-5.5a2.53,2.53,0,0,0-.39,3.55,2.47,2.47,0,0,0,1.69.93,2.53,2.53,0,1,0-1.3-4.48Z"/><path class="cls-1" d="M30.4,62.47a3.52,3.52,0,0,1-3.51-3.91,3.48,3.48,0,0,1,1.3-2.36h0a3.52,3.52,0,0,1,2.59-.76,3.53,3.53,0,0,1-.38,7Zm0-6a2.5,2.5,0,0,0-1.58.56h0A2.52,2.52,0,1,0,32,60.91a2.47,2.47,0,0,0,.93-1.69,2.51,2.51,0,0,0-.54-1.85,2.47,2.47,0,0,0-1.69-.93Z"/><path class="cls-1" d="M49.75,54.53a3.52,3.52,0,0,1-2.21-6.27h0a3.55,3.55,0,0,1,5,.54,3.54,3.54,0,0,1-.55,5A3.49,3.49,0,0,1,49.75,54.53Zm0-6a2.5,2.5,0,0,0-1.57.55h0a2.53,2.53,0,1,0,3.55.39A2.49,2.49,0,0,0,50,48.5Z"/><rect class="cls-1" x="17.65" y="20.34" width="1" height="10.29" transform="translate(-13.03 22.91) rotate(-49.83)"/><rect class="cls-1" x="27.25" y="18.08" width="12.18" height="1" transform="translate(11.11 49.6) rotate(-83.5)"/><rect class="cls-1" x="43.06" y="32.86" width="10.81" height="1" transform="matrix(0.98, -0.19, 0.19, 0.98, -5.39, 9.68)"/><rect class="cls-1" x="43.66" y="42.44" width="1" height="8.44" transform="translate(-19.78 52.87) rotate(-52.13)"/><rect class="cls-1" x="26.9" y="51.67" width="7.53" height="1" transform="matrix(0.04, -1, 1, 0.04, -22.66, 80.78)"/><rect class="cls-1" x="8.87" y="46.6" width="13.48" height="1" transform="translate(-23.5 16.57) rotate(-33.69)"/></g></g></svg>