<svg xmlns="http://www.w3.org/2000/svg" viewBox="0 0 48.83 56.84"><defs><style>.cls-1{fill:#f7941d;}</style></defs><g id="Layer_2" data-name="Layer 2"><g id="Layer_1-2" data-name="Layer 1"><path class="cls-1" d="M30.9,56.84H6.55A6.56,6.56,0,0,1,0,50.29V25.94a6.56,6.56,0,0,1,6.55-6.55H30.9a6.56,6.56,0,0,1,6.55,6.55V50.29A6.56,6.56,0,0,1,30.9,56.84ZM6.55,20.39A5.56,5.56,0,0,0,1,25.94V50.29a5.56,5.56,0,0,0,5.55,5.55H30.9a5.56,5.56,0,0,0,5.55-5.55V25.94a5.56,5.56,0,0,0-5.55-5.55Z"/><path class="cls-1" d="M8.16,19.89h-1V11.56a11.56,11.56,0,0,1,23.12,0v8.21h-1V11.56a10.56,10.56,0,0,0-21.12,0Z"/><path class="cls-1" d="M26.12,19.89h-1V11.67a6.4,6.4,0,1,0-12.79,0v8.22h-1V11.67a7.4,7.4,0,1,1,14.79,0Z"/><path class="cls-1" d="M45.69,49a3.15,3.15,0,1,1,0-6.3v1a2.15,2.15,0,1,0,0,4.3Z"/><path class="cls-1" d="M45.69,49V48a2.15,2.15,0,0,0,0-4.3v-1a3.15,3.15,0,0,1,0,6.3Z"/><path class="cls-1" d="M45.69,32.46a3.15,3.15,0,1,1,0-6.29v1a2.15,2.15,0,1,0,0,4.29Z"/><path class="cls-1" d="M45.69,32.46v-1a2.15,2.15,0,0,0,0-4.29v-1a3.15,3.15,0,0,1,0,6.29Z"/><rect class="cls-1" x="0.5" y="37.08" width="42.54" height="1"/><path class="cls-1" d="M45.69,40.73a3.15,3.15,0,0,1,0-6.3v1a2.15,2.15,0,0,0,0,4.3Z"/><path class="cls-1" d="M45.69,40.73v-1a2.15,2.15,0,0,0,0-4.3v-1a3.15,3.15,0,0,1,0,6.3Z"/><polygon class="cls-1" points="25.83 33.92 0.5 33.92 0.5 32.92 25.42 32.92 29.58 28.81 43.04 28.81 43.04 29.81 29.99 29.81 25.83 33.92"/><polygon class="cls-1" points="43.04 46.35 29.58 46.35 25.42 42.24 0.5 42.24 0.5 41.24 25.83 41.24 29.99 45.35 43.04 45.35 43.04 46.35"/></g></g></svg>