<svg xmlns="http://www.w3.org/2000/svg" viewBox="0 0 50.34 50.74"><defs><style>.cls-1{fill:#ffd400;}</style></defs><g id="Layer_2" data-name="Layer 2"><g id="Layer_1-2" data-name="Layer 1"><path class="cls-1" d="M21.75,21.75H0V0H21.75ZM1,20.75H20.75V1H1Z"/><path class="cls-1" d="M10.87,14.85a4,4,0,1,1,4-4A4,4,0,0,1,10.87,14.85Zm0-6.95a3,3,0,1,0,3,3A3,3,0,0,0,10.87,7.9Z"/><path class="cls-1" d="M50.34,21.75H28.59V0H50.34Zm-20.75-1H49.34V1H29.59Z"/><path class="cls-1" d="M39.47,14.85a4,4,0,1,1,4-4A4,4,0,0,1,39.47,14.85Zm0-6.95a3,3,0,1,0,3,3A3,3,0,0,0,39.47,7.9Z"/><path class="cls-1" d="M21.75,50.74H0V29H21.75ZM1,49.74H20.75V30H1Z"/><path class="cls-1" d="M10.87,43.84a4,4,0,1,1,4-4A4,4,0,0,1,10.87,43.84Zm0-7a3,3,0,1,0,3,3A3,3,0,0,0,10.87,36.89Z"/><path class="cls-1" d="M50.34,50.74H28.59V29H50.34Zm-20.75-1H49.34V30H29.59Z"/><path class="cls-1" d="M39.47,43.84a4,4,0,1,1,4-4A4,4,0,0,1,39.47,43.84Zm0-7a3,3,0,1,0,3,3A3,3,0,0,0,39.47,36.89Z"/><rect class="cls-1" x="14.35" y="10.37" width="21.64" height="1"/><rect class="cls-1" x="38.97" y="14.35" width="1" height="22.04"/><rect class="cls-1" x="14.35" y="39.36" width="21.64" height="1"/><rect class="cls-1" x="10.37" y="14.35" width="1" height="22.04"/></g></g></svg>