<svg xmlns="http://www.w3.org/2000/svg" viewBox="0 0 66.08 52.73"><defs><style>.cls-1{fill:#ffd400;}</style></defs><g id="Layer_2" data-name="Layer 2"><g id="Layer_1-2" data-name="Layer 1"><path class="cls-1" d="M59.53,52.73H16.33a6.56,6.56,0,0,1-6.55-6.55V31h1V46.18a5.56,5.56,0,0,0,5.55,5.55h43.2a5.56,5.56,0,0,0,5.55-5.55V18.31a5.56,5.56,0,0,0-5.55-5.55H31.71v-1H59.53a6.56,6.56,0,0,1,6.55,6.55V46.18A6.56,6.56,0,0,1,59.53,52.73Z"/><path class="cls-1" d="M66.08,40.29H47.87a6.55,6.55,0,0,1-6.54-6.55V31a6.55,6.55,0,0,1,6.54-6.55H66.08ZM47.87,25.46A5.55,5.55,0,0,0,42.33,31v2.73a5.55,5.55,0,0,0,5.54,5.55H65.08V25.46Z"/><path class="cls-1" d="M49.62,36.64a4.27,4.27,0,1,1,4.27-4.27A4.27,4.27,0,0,1,49.62,36.64Zm0-7.54a3.27,3.27,0,1,0,3.27,3.27A3.28,3.28,0,0,0,49.62,29.1Z"/><path class="cls-1" d="M16.37,32.75A16.38,16.38,0,1,1,32.75,16.37,16.4,16.4,0,0,1,16.37,32.75ZM16.37,1A15.38,15.38,0,1,0,31.75,16.37,15.39,15.39,0,0,0,16.37,1Z"/><polygon class="cls-1" points="4.68 8.72 14.77 8.72 15.79 10.2 5.71 10.2 4.68 8.72"/><polygon class="cls-1" points="28.07 8.72 17.98 8.72 16.96 10.2 27.04 10.2 28.07 8.72"/><polygon class="cls-1" points="18.85 24.32 18.85 13.06 25.05 13.06 26.37 11.17 16.96 11.17 16.96 12.82 16.96 13.06 16.96 27.05 18.85 24.32"/><polygon class="cls-1" points="13.9 27.05 13.9 13.06 7.69 13.06 6.38 11.17 15.79 11.17 15.79 12.82 15.79 13.06 15.79 29.77 13.9 27.05"/></g></g></svg>