<svg xmlns="http://www.w3.org/2000/svg" viewBox="0 0 38.36 63.53"><defs><style>.cls-1{fill:#ffd400;}</style></defs><g id="Layer_2" data-name="Layer 2"><g id="Layer_1-2" data-name="Layer 1"><polygon class="cls-1" points="19.18 63.53 13.65 60.22 13.65 31.43 14.65 31.43 14.65 59.65 19.18 62.37 23.71 59.65 23.71 31.43 24.71 31.43 24.71 60.22 19.18 63.53"/><polygon class="cls-1" points="19.68 62.95 18.68 62.95 18.68 38.73 13.9 35.98 14.4 35.12 19.68 38.15 19.68 62.95"/><path class="cls-1" d="M19.18,32.75A16.38,16.38,0,1,1,35.56,16.37,16.39,16.39,0,0,1,19.18,32.75ZM19.18,1A15.38,15.38,0,1,0,34.56,16.37,15.39,15.39,0,0,0,19.18,1Z"/><polygon class="cls-1" points="7.49 8.72 17.58 8.72 18.6 10.2 8.52 10.2 7.49 8.72"/><polygon class="cls-1" points="30.88 8.72 20.79 8.72 19.77 10.2 29.85 10.2 30.88 8.72"/><polygon class="cls-1" points="21.66 24.32 21.66 13.06 27.86 13.06 29.17 11.17 19.77 11.17 19.77 12.81 19.77 13.06 19.77 27.05 21.66 24.32"/><polygon class="cls-1" points="16.71 27.05 16.71 13.06 10.5 13.06 9.19 11.17 18.6 11.17 18.6 12.81 18.6 13.06 18.6 29.77 16.71 27.05"/><rect class="cls-1" x="5.26" y="48.16" width="8.89" height="1"/><path class="cls-1" d="M2.88,51.55v-1a1.89,1.89,0,0,0,0-3.77v-1a2.89,2.89,0,0,1,0,5.77Z"/><path class="cls-1" d="M2.88,51.55a2.89,2.89,0,0,1,0-5.77v1a1.89,1.89,0,0,0,0,3.77Z"/><rect class="cls-1" x="8.67" y="40.72" width="5.42" height="1"/><path class="cls-1" d="M6.29,44.1v-1a1.88,1.88,0,1,0,0-3.76v-1a2.88,2.88,0,1,1,0,5.76Z"/><path class="cls-1" d="M6.29,44.1a2.88,2.88,0,1,1,0-5.76v1a1.88,1.88,0,1,0,0,3.76Z"/><rect class="cls-1" x="8.67" y="55.61" width="5.42" height="1"/><path class="cls-1" d="M6.29,59V58a1.88,1.88,0,0,0,0-3.76v-1a2.88,2.88,0,0,1,0,5.76Z"/><path class="cls-1" d="M6.29,59a2.88,2.88,0,1,1,0-5.76v1a1.88,1.88,0,1,0,0,3.76Z"/><rect class="cls-1" x="24.21" y="48.16" width="8.89" height="1"/><path class="cls-1" d="M35.48,51.55a2.89,2.89,0,0,1,0-5.77v1a1.89,1.89,0,0,0,0,3.77Z"/><path class="cls-1" d="M35.48,51.55v-1a1.89,1.89,0,0,0,0-3.77v-1a2.89,2.89,0,0,1,0,5.77Z"/><rect class="cls-1" x="24.28" y="55.61" width="5.42" height="1"/><path class="cls-1" d="M32.08,59a2.88,2.88,0,1,1,0-5.76v1a1.88,1.88,0,0,0,0,3.76Z"/><path class="cls-1" d="M32.08,59V58a1.88,1.88,0,0,0,0-3.76v-1a2.88,2.88,0,0,1,0,5.76Z"/><rect class="cls-1" x="24.28" y="40.72" width="5.42" height="1"/><path class="cls-1" d="M32.08,44.1a2.88,2.88,0,1,1,0-5.76v1a1.88,1.88,0,1,0,0,3.76Z"/><path class="cls-1" d="M32.08,44.1v-1a1.88,1.88,0,1,0,0-3.76v-1a2.88,2.88,0,1,1,0,5.76Z"/></g></g></svg>