<svg xmlns="http://www.w3.org/2000/svg" viewBox="0 0 61.45 61.46"><defs><style>.cls-1{fill:#f7941d;}</style></defs><g id="Layer_2" data-name="Layer 2"><g id="Layer_1-2" data-name="Layer 1"><path class="cls-1" d="M46.86,53.41H14.59A6.56,6.56,0,0,1,8,46.86V14.59A6.56,6.56,0,0,1,14.59,8H46.86a6.56,6.56,0,0,1,6.55,6.55V46.86A6.56,6.56,0,0,1,46.86,53.41ZM14.59,9A5.56,5.56,0,0,0,9,14.59V46.86a5.56,5.56,0,0,0,5.55,5.55H46.86a5.56,5.56,0,0,0,5.55-5.55V14.59A5.56,5.56,0,0,0,46.86,9Z"/><path class="cls-1" d="M15.35,28.4h-1V19.18a4.84,4.84,0,0,1,4.83-4.83h8.47v1H19.18a3.84,3.84,0,0,0-3.83,3.83Z"/><path class="cls-1" d="M42.27,47.1h-21v-1h21a3.84,3.84,0,0,0,3.83-3.83V21.63h1V42.27A4.83,4.83,0,0,1,42.27,47.1Z"/><path class="cls-1" d="M61,27.85h-8a.5.5,0,0,1-.5-.5.5.5,0,0,1,.5-.5h8a.5.5,0,0,1,.5.5A.5.5,0,0,1,61,27.85Z"/><path class="cls-1" d="M61,21.08h-8a.5.5,0,0,1-.5-.5.5.5,0,0,1,.5-.5h8a.5.5,0,0,1,.5.5A.5.5,0,0,1,61,21.08Z"/><path class="cls-1" d="M61,14.32h-8a.5.5,0,0,1-.5-.5.5.5,0,0,1,.5-.5h8a.5.5,0,0,1,.5.5A.5.5,0,0,1,61,14.32Z"/><path class="cls-1" d="M61,34.61h-8a.5.5,0,0,1-.5-.5.5.5,0,0,1,.5-.5h8a.5.5,0,0,1,.5.5A.5.5,0,0,1,61,34.61Z"/><path class="cls-1" d="M61,41.37h-8a.5.5,0,0,1,0-1h8a.5.5,0,0,1,0,1Z"/><path class="cls-1" d="M61,48.13h-8a.5.5,0,0,1-.5-.5.5.5,0,0,1,.5-.5h8a.5.5,0,0,1,.5.5A.5.5,0,0,1,61,48.13Z"/><path class="cls-1" d="M8.54,34.61H.5a.5.5,0,0,1-.5-.5.5.5,0,0,1,.5-.5h8a.5.5,0,0,1,.5.5A.5.5,0,0,1,8.54,34.61Z"/><path class="cls-1" d="M8.54,41.37H.5a.5.5,0,0,1,0-1h8a.5.5,0,0,1,0,1Z"/><path class="cls-1" d="M8.54,48.13H.5a.5.5,0,0,1-.5-.5.5.5,0,0,1,.5-.5h8a.5.5,0,0,1,.5.5A.5.5,0,0,1,8.54,48.13Z"/><path class="cls-1" d="M8.54,27.85H.5a.5.5,0,0,1-.5-.5.5.5,0,0,1,.5-.5h8a.5.5,0,0,1,.5.5A.5.5,0,0,1,8.54,27.85Z"/><path class="cls-1" d="M8.54,21.08H.5a.5.5,0,0,1-.5-.5.5.5,0,0,1,.5-.5h8a.5.5,0,0,1,.5.5A.5.5,0,0,1,8.54,21.08Z"/><path class="cls-1" d="M8.54,14.32H.5a.5.5,0,0,1-.5-.5.5.5,0,0,1,.5-.5h8a.5.5,0,0,1,.5.5A.5.5,0,0,1,8.54,14.32Z"/><path class="cls-1" d="M34.11,61.46a.5.5,0,0,1-.5-.5V52.91a.5.5,0,0,1,.5-.5.5.5,0,0,1,.5.5V61A.51.51,0,0,1,34.11,61.46Z"/><path class="cls-1" d="M40.87,61.46a.5.5,0,0,1-.5-.5V52.91a.5.5,0,0,1,1,0V61A.5.5,0,0,1,40.87,61.46Z"/><path class="cls-1" d="M47.63,61.46a.51.51,0,0,1-.5-.5V52.91a.5.5,0,0,1,.5-.5.5.5,0,0,1,.5.5V61A.5.5,0,0,1,47.63,61.46Z"/><path class="cls-1" d="M27.35,61.46a.5.5,0,0,1-.5-.5V52.91a.5.5,0,0,1,.5-.5.5.5,0,0,1,.5.5V61A.51.51,0,0,1,27.35,61.46Z"/><path class="cls-1" d="M20.58,61.46a.51.51,0,0,1-.5-.5V52.91a.5.5,0,0,1,.5-.5.5.5,0,0,1,.5.5V61A.5.5,0,0,1,20.58,61.46Z"/><path class="cls-1" d="M13.82,61.46a.51.51,0,0,1-.5-.5V52.91a.5.5,0,0,1,.5-.5.5.5,0,0,1,.5.5V61A.5.5,0,0,1,13.82,61.46Z"/><path class="cls-1" d="M27.35,9a.5.5,0,0,1-.5-.5V.5a.5.5,0,0,1,.5-.5.5.5,0,0,1,.5.5v8A.5.5,0,0,1,27.35,9Z"/><path class="cls-1" d="M20.58,9a.5.5,0,0,1-.5-.5V.5a.5.5,0,0,1,.5-.5.5.5,0,0,1,.5.5v8A.5.5,0,0,1,20.58,9Z"/><path class="cls-1" d="M13.82,9a.5.5,0,0,1-.5-.5V.5a.5.5,0,0,1,.5-.5.5.5,0,0,1,.5.5v8A.5.5,0,0,1,13.82,9Z"/><path class="cls-1" d="M34.11,9a.5.5,0,0,1-.5-.5V.5a.5.5,0,0,1,.5-.5.5.5,0,0,1,.5.5v8A.5.5,0,0,1,34.11,9Z"/><path class="cls-1" d="M40.87,9a.5.5,0,0,1-.5-.5V.5a.5.5,0,0,1,1,0v8A.5.5,0,0,1,40.87,9Z"/><path class="cls-1" d="M47.63,9a.5.5,0,0,1-.5-.5V.5a.5.5,0,0,1,.5-.5.5.5,0,0,1,.5.5v8A.5.5,0,0,1,47.63,9Z"/><polygon class="cls-1" points="21.49 22.41 29.46 22.41 30.27 23.58 22.3 23.58 21.49 22.41"/><polygon class="cls-1" points="39.97 22.41 32 22.41 31.19 23.58 39.15 23.58 39.97 22.41"/><polygon class="cls-1" points="32.68 34.74 32.68 25.84 37.58 25.84 38.62 24.35 31.19 24.35 31.19 25.65 31.19 25.84 31.19 36.89 32.68 34.74"/><polygon class="cls-1" points="28.77 36.89 28.77 25.84 23.87 25.84 22.83 24.35 30.27 24.35 30.27 25.65 30.27 25.84 30.27 39.04 28.77 36.89"/></g></g></svg>