<svg xmlns="http://www.w3.org/2000/svg" viewBox="0 0 55.84 52.03"><defs><style>.cls-1{fill:#8cc63f;}</style></defs><g id="Layer_2" data-name="Layer 2"><g id="Layer_1-2" data-name="Layer 1"><path class="cls-1" d="M6,20.15a4.65,4.65,0,1,1,4.64-4.65A4.65,4.65,0,0,1,6,20.15Zm0-8.3A3.65,3.65,0,1,0,9.59,15.5,3.66,3.66,0,0,0,6,11.85Z"/><path class="cls-1" d="M9.88,52H2a2,2,0,0,1-2-2V30.17a2,2,0,0,1,2-2H9.88a2,2,0,0,1,2,2V50A2,2,0,0,1,9.88,52ZM2,29.15a1,1,0,0,0-1,1V50a1,1,0,0,0,1,1H9.88a1,1,0,0,0,1-1V30.17a1,1,0,0,0-1-1Z"/><path class="cls-1" d="M35.24,25.15a4.65,4.65,0,1,1,4.65-4.64A4.64,4.64,0,0,1,35.24,25.15Zm0-8.29a3.65,3.65,0,1,0,3.65,3.65A3.64,3.64,0,0,0,35.24,16.86Z"/><path class="cls-1" d="M39.18,52H31.31a2,2,0,0,1-2-2V36a2,2,0,0,1,2-2h7.87a2,2,0,0,1,2,2V50A2,2,0,0,1,39.18,52ZM31.31,35a1,1,0,0,0-1,1V50a1,1,0,0,0,1,1h7.87a1,1,0,0,0,1-1V36a1,1,0,0,0-1-1Z"/><path class="cls-1" d="M49.89,19.11a4.65,4.65,0,1,1,4.65-4.64A4.64,4.64,0,0,1,49.89,19.11Zm0-8.29a3.65,3.65,0,1,0,3.65,3.65A3.64,3.64,0,0,0,49.89,10.82Z"/><path class="cls-1" d="M53.83,52H46a2,2,0,0,1-2-2V29.36a2,2,0,0,1,2-2h7.87a2,2,0,0,1,2,2V50A2,2,0,0,1,53.83,52ZM46,28.35a1,1,0,0,0-1,1V50a1,1,0,0,0,1,1h7.87a1,1,0,0,0,1-1V29.36a1,1,0,0,0-1-1Z"/><path class="cls-1" d="M20.6,9.3a4.65,4.65,0,1,1,4.64-4.65A4.65,4.65,0,0,1,20.6,9.3Zm0-8.3a3.65,3.65,0,1,0,3.64,3.65A3.65,3.65,0,0,0,20.6,1Z"/><path class="cls-1" d="M24.53,52H16.66a2,2,0,0,1-2-2V19.76a2,2,0,0,1,2-2h7.87a2,2,0,0,1,2,2V50A2,2,0,0,1,24.53,52ZM16.66,18.74a1,1,0,0,0-1,1V50a1,1,0,0,0,1,1h7.87a1,1,0,0,0,1-1V19.76a1,1,0,0,0-1-1Z"/><rect class="cls-1" x="8.28" y="9.5" width="10.18" height="1" transform="translate(-3.33 9.93) rotate(-36.55)"/><rect class="cls-1" x="27.44" y="5.92" width="1" height="13.34" transform="translate(-1.13 22.3) rotate(-42.73)"/><rect class="cls-1" x="38.79" y="16.98" width="7.6" height="1" transform="translate(-3.45 17.53) rotate(-22.38)"/></g></g></svg>