<svg xmlns="http://www.w3.org/2000/svg" viewBox="0 0 38.79 67.65"><defs><style>.cls-1{fill:#f7941d;}</style></defs><g id="Layer_2" data-name="Layer 2"><g id="Layer_1-2" data-name="Layer 1"><polygon class="cls-1" points="10.16 27.4 18.13 27.4 18.94 28.57 10.97 28.57 10.16 27.4"/><polygon class="cls-1" points="28.64 27.4 20.66 27.4 19.86 28.57 27.82 28.57 28.64 27.4"/><polygon class="cls-1" points="21.35 39.73 21.35 30.83 26.25 30.83 27.29 29.34 19.86 29.34 19.86 30.64 19.86 30.83 19.86 41.88 21.35 39.73"/><polygon class="cls-1" points="17.44 41.88 17.44 30.83 12.54 30.83 11.5 29.34 18.94 29.34 18.94 30.64 18.94 30.83 18.94 44.03 17.44 41.88"/><path class="cls-1" d="M32.15,67.65H6.64A6.65,6.65,0,0,1,0,61V6.64A6.65,6.65,0,0,1,6.64,0H32.15a6.65,6.65,0,0,1,6.64,6.64V61A6.65,6.65,0,0,1,32.15,67.65ZM6.64,1A5.65,5.65,0,0,0,1,6.64V61a5.65,5.65,0,0,0,5.64,5.64H32.15A5.65,5.65,0,0,0,37.79,61V6.64A5.65,5.65,0,0,0,32.15,1Z"/><path class="cls-1" d="M28.07,7.54H10.73a.5.5,0,0,1-.5-.5.5.5,0,0,1,.5-.5H28.07a.5.5,0,0,1,.5.5A.5.5,0,0,1,28.07,7.54Z"/><path class="cls-1" d="M19.4,46.49a13,13,0,1,1,13-13A13.06,13.06,0,0,1,19.4,46.49Zm0-25.08a12,12,0,1,0,12,12A12.05,12.05,0,0,0,19.4,21.41Z"/><path class="cls-1" d="M19.4,61.05a3.15,3.15,0,1,1,3.14-3.14A3.15,3.15,0,0,1,19.4,61.05Zm0-5.29a2.15,2.15,0,1,0,2.14,2.15A2.15,2.15,0,0,0,19.4,55.76Z"/></g></g></svg>