<?xml version="1.0" encoding="utf-8"?>
<!-- Generator: Adobe Illustrator 25.4.1, SVG Export Plug-In . SVG Version: 6.00 Build 0)  -->
<svg version="1.1" xmlns="http://www.w3.org/2000/svg" xmlns:xlink="http://www.w3.org/1999/xlink" x="0px" y="0px"
	 viewBox="0 0 1823.6 1823.6" style="enable-background:new 0 0 1823.6 1823.6;" xml:space="preserve">
<style type="text/css">
	.st0{fill:url(#SVGID_1_);}
	.st1{fill:url(#SVGID_00000119798988943430273710000010939804629253618589_);}
	.st2{fill:url(#SVGID_00000008871862767535224230000010874935230400591546_);}
	.st3{fill:url(#SVGID_00000126324655388058900140000005067653954625111703_);}
</style>
<g id="Layer_1">
	<g>
		<linearGradient id="SVGID_1_" gradientUnits="userSpaceOnUse" x1="0" y1="911.7981" x2="1823.5988" y2="911.7981">
			<stop  offset="0" style="stop-color:#4D4D4D"/>
			<stop  offset="0.2393" style="stop-color:#F2F2F2"/>
			<stop  offset="0.2892" style="stop-color:#CCCCCC"/>
			<stop  offset="0.3695" style="stop-color:#969696"/>
			<stop  offset="0.4389" style="stop-color:#6E6E6E"/>
			<stop  offset="0.4939" style="stop-color:#565656"/>
			<stop  offset="0.5276" style="stop-color:#4D4D4D"/>
			<stop  offset="0.5612" style="stop-color:#555555"/>
			<stop  offset="0.6133" style="stop-color:#6B6B6B"/>
			<stop  offset="0.6772" style="stop-color:#8E8E8E"/>
			<stop  offset="0.7498" style="stop-color:#BFBFBF"/>
			<stop  offset="0.816" style="stop-color:#F2F2F2"/>
			<stop  offset="1" style="stop-color:#4D4D4D"/>
		</linearGradient>
		<path class="st0" d="M911.8,0C408.2,0,0,408.2,0,911.8c0,503.6,408.2,911.8,911.8,911.8c503.6,0,911.8-408.2,911.8-911.8
			C1823.6,408.2,1415.4,0,911.8,0z M911.8,1679.1c-423.8,0-767.3-343.5-767.3-767.3c0-423.7,343.5-767.3,767.3-767.3
			c423.7,0,767.3,343.5,767.3,767.3C1679.1,1335.5,1335.5,1679.1,911.8,1679.1z"/>
	</g>
	
		<radialGradient id="SVGID_00000065754624034015827180000006382607087058307499_" cx="911.7991" cy="911.7996" r="831.7434" gradientUnits="userSpaceOnUse">
		<stop  offset="0.5092" style="stop-color:#000000"/>
		<stop  offset="0.9264" style="stop-color:#333333"/>
	</radialGradient>
	<circle style="fill:url(#SVGID_00000065754624034015827180000006382607087058307499_);" cx="911.8" cy="911.8" r="831.7"/>
	
		<linearGradient id="SVGID_00000002385933702171892530000015746103650759850638_" gradientUnits="userSpaceOnUse" x1="911.7994" y1="1541.7837" x2="911.7994" y2="281.8159">
		<stop  offset="0.7914" style="stop-color:#000000"/>
		<stop  offset="0.9325" style="stop-color:#333333"/>
		<stop  offset="0.9505" style="stop-color:#363636"/>
		<stop  offset="0.962" style="stop-color:#3E3E3E"/>
		<stop  offset="0.9718" style="stop-color:#4D4D4D"/>
		<stop  offset="0.9805" style="stop-color:#626262"/>
		<stop  offset="0.9885" style="stop-color:#7D7D7D"/>
		<stop  offset="0.996" style="stop-color:#9E9E9E"/>
		<stop  offset="1" style="stop-color:#B3B3B3"/>
	</linearGradient>
	<circle style="fill:url(#SVGID_00000002385933702171892530000015746103650759850638_);" cx="911.8" cy="911.8" r="630"/>
	<g>
		
			<linearGradient id="SVGID_00000027591288702080371880000013915753659260784513_" gradientUnits="userSpaceOnUse" x1="410.3994" y1="911.7966" x2="1413.1945" y2="911.7966">
			<stop  offset="0" style="stop-color:#999999"/>
			<stop  offset="0.2393" style="stop-color:#F2F2F2"/>
			<stop  offset="0.2896" style="stop-color:#EFEFEF"/>
			<stop  offset="0.4969" style="stop-color:#E6E6E6"/>
			<stop  offset="0.816" style="stop-color:#F2F2F2"/>
			<stop  offset="1" style="stop-color:#999999"/>
		</linearGradient>
		<path style="fill:url(#SVGID_00000027591288702080371880000013915753659260784513_);" d="M911.8,410.4
			c-276.9,0-501.4,224.5-501.4,501.4c0,276.9,224.5,501.4,501.4,501.4c276.9,0,501.4-224.5,501.4-501.4
			C1413.2,634.9,1188.7,410.4,911.8,410.4z M911.8,1333.7c-233,0-421.9-188.9-421.9-421.9c0-233,188.9-421.9,421.9-421.9
			s421.9,188.9,421.9,421.9C1333.7,1144.8,1144.8,1333.7,911.8,1333.7z"/>
	</g>
	<g>
		<g>
			<g>
				<defs>
					<path id="SVGID_00000095302601619446185140000005748888635011483272_" d="M911.8,911.8L911.8,911.8c1.4,0,2.8,0,4.1,0
						c1.3,0,2.6,0,3.9,0c1.3,0,2.5,0,3.8,0s2.4,0,3.6,0s2.3,0,3.4,0c1.1,0,2.2,0,3.3,0s2.2,0,3.2,0s2.1,0,3.1,0c1,0,2,0,3,0
						c1,0,2,0,2.9,0s1.9,0,2.8,0c0.9,0,1.9,0,2.8,0s1.8,0,2.7,0c0.9,0,1.8,0,2.7,0s1.8,0,2.6,0c0.9,0,1.7,0,2.6,0c0.9,0,1.7,0,2.6,0
						c0.9,0,1.7,0,2.6,0s1.7,0,2.6,0c0.9,0,1.7,0,2.6,0c0.9,0,1.7,0,2.6,0s1.7,0,2.6,0c0.9,0,1.7,0,2.6,0c0.9,0,1.7,0,2.6,0
						c0.9,0,1.8,0,2.7,0c0.9,0,1.8,0,2.7,0s1.8,0,2.7,0c0.9,0,1.8,0,2.8,0s1.9,0,2.8,0s1.9,0,2.9,0c1,0,2,0,2.9,0s2,0,3,0
						c1,0,2,0,3.1,0s2.1,0,3.2,0s2.1,0,3.2,0c1.1,0,2.2,0,3.3,0c1.1,0,2.3,0,3.4,0s2.3,0,3.5,0c1.2,0,2.4,0,3.6,0c1.2,0,2.5,0,3.7,0
						c1.3,0,2.5,0,3.8,0s2.6,0,3.9,0s2.7,0,4.1,0s2.8,0,4.2,0s2.8,0,4.3,0s2.9,0,4.4,0c1.5,0,3,0,4.6,0c1.5,0,3.1,0,4.7,0
						c1.6,0,3.2,0,4.9,0s3.3,0,5,0s3.4,0,5.2,0s3.5,0,5.4,0s3.7,0,5.5,0c1.9,0,3.8,0,5.7,0c1.9,0,3.9,0,5.9,0c2,0,4,0,6.1,0
						c2.1,0,4.2,0,6.3,0s4.3,0,6.5,0s4.4,0,6.7,0c2.3,0,4.6,0,6.9,0s4.7,0,7.2,0s4.9,0,7.4,0s5.1,0,7.6,0c2.6,0,5.2,0,7.9,0
						s5.4,0,8.2,0s5.6,0,8.4,0s5.8,0,8.7,0s6,0,9,0c3.1,0,6.2,0,9.3,0c3.2,0,6.4,0,9.7,0s6.6,0,10,0s6.8,0,10.3,0
						c3.5,0,7.1,0,10.7,0c3.6,0,7.3,0,11.1,0s3.5,0,5.1,0s3.4,0,5.1,0s3.4,0,5.1,0c1.7,0,3.4,0,5.2,0s3.5,0,5.2,0c1.7,0,3.5,0,5.2,0
						s3.5,0,5.3,0c1.8,0,3.5,0,5.3,0s3.6,0,5.4,0c1.8,0,3.6,0,5.4,0s3.6,0,5.4,0s3.6,0,5.5,0c1.8,0,3.7,0,5.5,0s3.7,0,5.6,0
						s3.7,0,5.6,0s3.8,0,5.7,0s3.8,0,5.7,0s3.8,0,5.8,0c1.9,0,3.9,0,5.8,0s3.9,0,5.9,0s3.9,0,5.9,0s4,0,6,0c2,0,4,0,6,0
						c2,0,4.1,0,6.1,0c2,0,4.1,0,6.2,0c2.1,0,4.1,0,6.2,0c0-4.3-0.1-8.6-0.2-12.9c-0.1-4.3-0.3-8.5-0.5-12.8s-0.5-8.5-0.8-12.7
						c-0.3-4.2-0.7-8.4-1.1-12.5c-0.4-4.2-0.9-8.3-1.4-12.4c-0.5-4.1-1.1-8.2-1.7-12.3c-0.6-4.1-1.3-8.1-2-12.1c-0.7-4-1.5-8-2.3-12
						c-0.8-4-1.7-7.9-2.6-11.8s-1.8-7.8-2.8-11.7c-1-3.9-2-7.7-3.1-11.6c-1.1-3.8-2.2-7.6-3.4-11.4c-1.2-3.8-2.4-7.5-3.6-11.3
						s-2.5-7.4-3.9-11.1c-1.3-3.7-2.7-7.3-4.1-10.9c-1.4-3.6-2.9-7.2-4.3-10.8c-1.5-3.6-3-7.1-4.6-10.6c-1.6-3.5-3.2-7-4.8-10.5
						c-1.6-3.5-3.3-6.9-5-10.3s-3.4-6.8-5.2-10.1c-1.8-3.4-3.6-6.7-5.4-10c-1.8-3.3-3.7-6.6-5.6-9.8s-3.9-6.4-5.8-9.6
						c-2-3.2-4-6.3-6-9.5c-2-3.1-4.1-6.2-6.2-9.3c-2.1-3.1-4.2-6.1-6.4-9.1c-2.2-3-4.4-6-6.6-8.9c-2.2-2.9-4.5-5.9-6.7-8.7
						s-4.6-5.7-6.9-8.6s-4.7-5.6-7.1-8.4s-4.8-5.5-7.2-8.2c-2.4-2.7-4.9-5.4-7.4-8c-2.5-2.6-5-5.3-7.5-7.8c-2.5-2.6-5.1-5.1-7.7-7.6
						c-2.6-2.5-5.2-5-7.8-7.5c-2.6-2.5-5.3-4.9-8-7.3s-5.4-4.7-8.1-7.1s-5.5-4.6-8.2-6.9c-2.8-2.3-5.6-4.5-8.4-6.7
						c-2.8-2.2-5.6-4.4-8.5-6.5c-2.8-2.1-5.7-4.2-8.6-6.3c-2.9-2.1-5.8-4.1-8.7-6.1s-5.9-4-8.8-5.9s-5.9-3.8-8.9-5.7
						c-3-1.9-6-3.7-9-5.5c-3-1.8-6.1-3.6-9.1-5.3c-3.1-1.7-6.1-3.4-9.2-5.1c-3.1-1.7-6.2-3.3-9.3-4.9s-6.3-3.2-9.4-4.7
						c-3.2-1.5-6.3-3-9.5-4.5c-3.2-1.5-6.4-2.9-9.6-4.3c-3.2-1.4-6.4-2.7-9.7-4.1c-3.2-1.3-6.5-2.6-9.7-3.8
						c-3.3-1.2-6.5-2.5-9.8-3.6c-3.3-1.2-6.6-2.3-9.9-3.4c-3.3-1.1-6.6-2.2-10-3.2c-3.3-1-6.7-2-10-3c-3.4-1-6.7-1.9-10.1-2.8
						c-3.4-0.9-6.8-1.7-10.2-2.6s-6.8-1.6-10.2-2.4c-3.4-0.7-6.8-1.5-10.3-2.1c-3.4-0.7-6.9-1.3-10.3-1.9c-3.4-0.6-6.9-1.2-10.4-1.7
						s-6.9-1-10.4-1.5c-3.5-0.5-7-0.9-10.5-1.3c-3.5-0.4-7-0.7-10.5-1c-3.5-0.3-7-0.6-10.5-0.8c-3.5-0.2-7-0.4-10.6-0.6
						c-3.5-0.2-7.1-0.3-10.6-0.4c-3.5-0.1-7.1-0.1-10.6-0.2c-3.6,0-7.1,0-10.6,0.1s-7.1,0.2-10.6,0.3s-7,0.3-10.5,0.5
						s-7,0.4-10.4,0.7c-3.5,0.3-6.9,0.6-10.3,0.9c-3.4,0.3-6.8,0.7-10.2,1.1c-3.4,0.4-6.8,0.9-10.2,1.3c-3.4,0.5-6.7,1-10.1,1.5
						c-3.3,0.5-6.7,1.1-10,1.7c-3.3,0.6-6.6,1.3-9.9,1.9c-3.3,0.7-6.6,1.4-9.8,2.1c-3.3,0.7-6.5,1.5-9.7,2.3
						c-3.2,0.8-6.4,1.6-9.6,2.5c-3.2,0.9-6.4,1.8-9.5,2.7s-6.3,1.9-9.4,2.9c-3.1,1-6.2,2-9.3,3c-3.1,1-6.2,2.1-9.2,3.2
						c-3.1,1.1-6.1,2.2-9.1,3.4c-3,1.2-6,2.3-9,3.5c-3,1.2-6,2.4-8.9,3.7c-3,1.3-5.9,2.6-8.8,3.9c-2.9,1.3-5.8,2.7-8.7,4
						c-2.9,1.4-5.8,2.8-8.6,4.2s-5.7,2.9-8.5,4.3c-2.8,1.5-5.6,3-8.4,4.5c-2.8,1.5-5.5,3.1-8.3,4.6c-2.7,1.6-5.5,3.2-8.2,4.8
						c-2.7,1.6-5.4,3.3-8.1,4.9c-2.7,1.7-5.3,3.4-8,5.1c-2.6,1.7-5.2,3.4-7.8,5.2c-2.6,1.8-5.2,3.5-7.7,5.3
						c-2.6,1.8-5.1,3.6-7.6,5.5c-2.5,1.8-5,3.7-7.5,5.6c-2.5,1.9-4.9,3.8-7.4,5.7c-2.4,1.9-4.8,3.9-7.2,5.9c-2.4,2-4.8,4-7.1,6
						c-2.4,2-4.7,4.1-7,6.1c-2.3,2.1-4.6,4.1-6.9,6.2s-4.5,4.2-6.7,6.3c-2.2,2.1-4.4,4.3-6.6,6.5c-2.2,2.2-4.3,4.4-6.5,6.6
						c-2.1,2.2-4.3,4.4-6.4,6.7c-2.1,2.2-4.2,4.5-6.2,6.8c-2.1,2.3-4.1,4.6-6.1,6.9c-2,2.3-4,4.7-6,7c-2,2.4-3.9,4.7-5.8,7.1
						c-1.9,2.4-3.8,4.8-5.7,7.2c-1.9,2.4-3.7,4.9-5.6,7.3c-1.8,2.5-3.6,4.9-5.4,7.4c-1.8,2.5-3.5,5-5.3,7.5
						c-1.7,2.5-3.4,5.1-5.1,7.6c-1.7,2.6-3.4,5.1-5,7.7c-1.6,2.6-3.3,5.2-4.8,7.8c-1.6,2.6-3.2,5.2-4.7,7.9s-3.1,5.3-4.6,8
						c-1.5,2.7-3,5.4-4.4,8c-1.4,2.7-2.9,5.4-4.3,8.1c-1.4,2.7-2.8,5.5-4.1,8.2c-1.3,2.8-2.7,5.5-4,8.3c-1.3,2.8-2.6,5.6-3.8,8.4
						c-1.2,2.8-2.5,5.6-3.7,8.4s-2.4,5.7-3.5,8.5s-2.3,5.7-3.3,8.6c-1.1,2.9-2.1,5.8-3.2,8.7c-1,2.9-2,5.8-3,8.7
						c-1,2.9-1.9,5.9-2.9,8.8c-0.9,2.9-1.8,5.9-2.7,8.9c-0.9,3-1.7,6-2.5,8.9c-0.8,3-1.6,6-2.4,9c-0.8,3-1.5,6-2.2,9.1
						c-0.7,3-1.4,6.1-2,9.1c-0.7,3.1-1.3,6.1-1.9,9.2c-0.6,3.1-1.2,6.2-1.7,9.2s-1,6.2-1.5,9.3c-0.5,3.1-0.9,6.2-1.4,9.4
						s-0.8,6.3-1.2,9.4c-0.4,3.1-0.7,6.3-1,9.5s-0.6,6.3-0.8,9.5c-0.2,3.2-0.5,6.4-0.6,9.6c-0.2,3.2-0.3,6.4-0.5,9.6
						c-0.1,3.2-0.2,6.4-0.3,9.7c-0.1,3.2-0.1,6.5-0.1,9.7c0,3.2,0,6.5,0.1,9.7c0.1,3.2,0.2,6.4,0.3,9.7c0.1,3.2,0.3,6.4,0.5,9.6
						c0.2,3.2,0.4,6.4,0.6,9.6c0.2,3.2,0.5,6.4,0.8,9.5s0.6,6.3,1,9.5c0.4,3.1,0.8,6.3,1.2,9.4s0.9,6.2,1.4,9.4
						c0.5,3.1,1,6.2,1.5,9.3c0.5,3.1,1.1,6.2,1.7,9.2c0.6,3.1,1.2,6.1,1.9,9.2c0.7,3.1,1.3,6.1,2,9.1c0.7,3,1.4,6.1,2.2,9.1
						c0.8,3,1.6,6,2.4,9s1.7,6,2.5,8.9c0.9,3,1.8,5.9,2.7,8.9c0.9,2.9,1.9,5.9,2.9,8.8c1,2.9,2,5.8,3,8.7c1,2.9,2.1,5.8,3.2,8.7
						c1.1,2.9,2.2,5.7,3.3,8.6c1.1,2.9,2.3,5.7,3.5,8.5c1.2,2.8,2.4,5.6,3.7,8.4c1.2,2.8,2.5,5.6,3.8,8.4s2.6,5.5,4,8.3
						c1.3,2.8,2.7,5.5,4.1,8.2s2.8,5.4,4.3,8.1c1.4,2.7,2.9,5.4,4.4,8s3,5.3,4.6,8c1.5,2.6,3.1,5.3,4.7,7.9c1.6,2.6,3.2,5.2,4.8,7.8
						c1.6,2.6,3.3,5.1,5,7.7s3.4,5.1,5.1,7.6c1.7,2.5,3.5,5,5.3,7.5c1.8,2.5,3.6,5,5.4,7.4s3.7,4.9,5.6,7.3c1.9,2.4,3.8,4.8,5.7,7.2
						c1.9,2.4,3.9,4.8,5.8,7.1s4,4.7,6,7c2,2.3,4,4.6,6.1,6.9c2.1,2.3,4.1,4.6,6.2,6.8s4.2,4.5,6.4,6.7c2.1,2.2,4.3,4.4,6.5,6.6
						c2.2,2.2,4.4,4.3,6.6,6.5c2.2,2.1,4.5,4.3,6.7,6.3c2.3,2.1,4.6,4.2,6.9,6.2c2.3,2.1,4.6,4.1,7,6.1c2.4,2,4.7,4,7.1,6
						c2.4,2,4.8,3.9,7.2,5.9c2.4,1.9,4.9,3.8,7.4,5.7s5,3.8,7.5,5.6c2.5,1.8,5,3.7,7.6,5.5c2.6,1.8,5.1,3.6,7.7,5.3
						c2.6,1.8,5.2,3.5,7.8,5.2c2.6,1.7,5.3,3.4,8,5.1c2.7,1.7,5.4,3.3,8.1,4.9c2.7,1.6,5.4,3.2,8.2,4.8s5.5,3.1,8.3,4.6
						c2.8,1.5,5.6,3,8.4,4.5c2.8,1.5,5.7,2.9,8.5,4.3c2.9,1.4,5.7,2.8,8.6,4.2c2.9,1.4,5.8,2.7,8.7,4c2.9,1.3,5.9,2.6,8.8,3.9
						c3,1.3,5.9,2.5,8.9,3.7c3,1.2,6,2.4,9,3.5s6.1,2.3,9.1,3.4s6.1,2.2,9.2,3.2c3.1,1,6.2,2.1,9.3,3c3.1,1,6.3,1.9,9.4,2.9
						c3.2,0.9,6.3,1.8,9.5,2.7c3.2,0.9,6.4,1.7,9.6,2.5c3.2,0.8,6.5,1.6,9.7,2.3s6.5,1.5,9.8,2.1c3.3,0.7,6.6,1.3,9.9,1.9
						s6.6,1.2,10,1.7c3.3,0.5,6.7,1.1,10.1,1.5c3.4,0.5,6.8,0.9,10.2,1.3c3.4,0.4,6.8,0.8,10.2,1.1c3.4,0.3,6.9,0.7,10.3,0.9
						s6.9,0.5,10.4,0.7c3.5,0.2,7,0.4,10.5,0.5c3.5,0.1,7,0.2,10.6,0.3s7.1,0.1,10.6,0.1c3.6,0,7.1-0.1,10.6-0.2
						c3.5-0.1,7.1-0.2,10.6-0.4c3.5-0.2,7.1-0.4,10.6-0.6c3.5-0.2,7-0.5,10.5-0.8c3.5-0.3,7-0.7,10.5-1s7-0.8,10.5-1.3
						c3.5-0.5,7-1,10.4-1.5c3.5-0.5,6.9-1.1,10.4-1.7c3.4-0.6,6.9-1.2,10.3-1.9s6.9-1.4,10.3-2.1c3.4-0.7,6.8-1.5,10.2-2.4
						s6.8-1.7,10.2-2.6c3.4-0.9,6.7-1.8,10.1-2.8c3.4-1,6.7-2,10-3s6.7-2.1,10-3.2c3.3-1.1,6.6-2.2,9.9-3.4c3.3-1.2,6.6-2.4,9.8-3.6
						c3.3-1.2,6.5-2.5,9.7-3.8s6.5-2.7,9.7-4.1c3.2-1.4,6.4-2.8,9.6-4.3s6.4-2.9,9.5-4.5c3.2-1.5,6.3-3.1,9.4-4.7s6.2-3.2,9.3-4.9
						s6.2-3.4,9.2-5.1c3.1-1.7,6.1-3.5,9.1-5.3s6-3.6,9-5.5s6-3.8,8.9-5.7c3-1.9,5.9-3.9,8.8-5.9c2.9-2,5.8-4,8.7-6.1
						c2.9-2.1,5.8-4.2,8.6-6.3c2.8-2.1,5.7-4.3,8.5-6.5c2.8-2.2,5.6-4.4,8.4-6.7c2.8-2.3,5.5-4.6,8.2-6.9c2.7-2.3,5.4-4.7,8.1-7.1
						c2.7-2.4,5.3-4.8,8-7.3c2.6-2.5,5.2-4.9,7.8-7.5s5.1-5.1,7.7-7.6c2.5-2.6,5.1-5.2,7.5-7.8s5-5.3,7.4-8c2.4-2.7,4.9-5.4,7.2-8.2
						c2.4-2.8,4.7-5.6,7.1-8.4c2.3-2.8,4.6-5.7,6.9-8.6c2.3-2.9,4.5-5.8,6.7-8.7c2.2-2.9,4.4-5.9,6.6-8.9c2.2-3,4.3-6,6.4-9.1
						c2.1-3.1,4.2-6.2,6.2-9.3c2-3.1,4-6.3,6-9.5c2-3.2,3.9-6.4,5.8-9.6s3.8-6.5,5.6-9.8s3.7-6.6,5.4-10c1.8-3.4,3.5-6.7,5.2-10.1
						c1.7-3.4,3.4-6.8,5-10.3s3.2-7,4.8-10.5c1.6-3.5,3.1-7.1,4.6-10.6s2.9-7.2,4.3-10.8c1.4-3.6,2.8-7.3,4.1-10.9
						c1.3-3.7,2.6-7.4,3.9-11.1s2.5-7.5,3.6-11.3c1.2-3.8,2.3-7.6,3.4-11.4c1.1-3.8,2.1-7.7,3.1-11.6c1-3.9,1.9-7.8,2.8-11.7
						c0.9-3.9,1.8-7.9,2.6-11.8c0.8-4,1.6-8,2.3-12s1.4-8.1,2-12.1c0.6-4.1,1.2-8.2,1.7-12.3c0.5-4.1,1-8.2,1.4-12.4
						c0.4-4.2,0.8-8.3,1.1-12.5c0.3-4.2,0.6-8.4,0.8-12.7c0.2-4.2,0.4-8.5,0.5-12.8c0.1-4.3,0.2-8.6,0.2-12.9c-2.1,0-4.2,0-6.2,0
						c-2.1,0-4.1,0-6.2,0c-2,0-4.1,0-6.1,0c-2,0-4,0-6,0c-2,0-4,0-6,0s-4,0-5.9,0s-3.9,0-5.9,0s-3.9,0-5.8,0c-1.9,0-3.9,0-5.8,0
						s-3.8,0-5.7,0s-3.8,0-5.7,0s-3.8,0-5.6,0s-3.7,0-5.6,0s-3.7,0-5.5,0c-1.8,0-3.7,0-5.5,0s-3.6,0-5.4,0s-3.6,0-5.4,0
						c-1.8,0-3.6,0-5.4,0s-3.6,0-5.3,0c-1.8,0-3.5,0-5.3,0s-3.5,0-5.2,0c-1.7,0-3.5,0-5.2,0s-3.5,0-5.2,0c-1.7,0-3.4,0-5.1,0
						s-3.4,0-5.1,0s-1.4,0-5.1,0s-7.4,0-11.1,0c-3.6,0-7.2,0-10.7,0c-3.5,0-6.9,0-10.3,0s-6.7,0-10,0s-6.5,0-9.7,0
						c-3.2,0-6.3,0-9.3,0c-3.1,0-6.1,0-9,0s-5.9,0-8.7,0s-5.7,0-8.4,0s-5.5,0-8.2,0s-5.3,0-7.9,0c-2.6,0-5.1,0-7.6,0s-5,0-7.4,0
						s-4.8,0-7.2,0s-4.7,0-6.9,0c-2.3,0-4.5,0-6.7,0s-4.4,0-6.5,0s-4.2,0-6.3,0c-2.1,0-4.1,0-6.1,0c-2,0-4,0-5.9,0
						c-1.9,0-3.8,0-5.7,0c-1.9,0-3.7,0-5.5,0s-3.6,0-5.4,0s-3.5,0-5.2,0c-1.7,0-3.4,0-5,0s-3.3,0-4.9,0s-3.2,0-4.7,0
						c-1.5,0-3.1,0-4.6,0c-1.5,0-3,0-4.4,0s-2.9,0-4.3,0s-2.8,0-4.2,0s-2.7,0-4.1,0c-1.3,0-2.6,0-3.9,0s-2.6,0-3.8,0
						c-1.3,0-2.5,0-3.7,0c-1.2,0-2.4,0-3.6,0c-1.2,0-2.4,0-3.5,0s-2.3,0-3.4,0c-1.1,0-2.2,0-3.3,0c-1.1,0-2.2,0-3.2,0
						c-1.1,0-2.1,0-3.2,0s-2.1,0-3.1,0c-1,0-2,0-3,0s-2,0-2.9,0c-1,0-1.9,0-2.9,0c-1,0-1.9,0-2.8,0s-1.9,0-2.8,0c-0.9,0-1.8,0-2.7,0
						c-0.9,0-1.8,0-2.7,0c-0.9,0-1.8,0-2.7,0c-0.9,0-1.8,0-2.6,0c-0.9,0-1.7,0-2.6,0c-0.9,0-1.7,0-2.6,0s-1.7,0-2.6,0
						c-0.9,0-1.7,0-2.6,0c-0.9,0-1.7,0-2.6,0s-1.7,0-2.6,0c-0.9,0-1.7,0-2.6,0c-0.9,0-1.7,0-2.6,0c-0.9,0-1.8,0-2.6,0s-1.8,0-2.7,0
						c-0.9,0-1.8,0-2.7,0s-1.8,0-2.8,0c-0.9,0-1.9,0-2.8,0s-1.9,0-2.9,0c-1,0-2,0-3,0c-1,0-2,0-3.1,0s-2.1,0-3.2,0s-2.2,0-3.3,0
						c-1.1,0-2.3,0-3.4,0s-2.4,0-3.6,0s-2.5,0-3.8,0c-1.3,0-2.6,0-3.9,0C914.6,911.8,913.2,911.8,911.8,911.8z"/>
				</defs>
				<clipPath id="SVGID_00000155857474184305023890000004926505013681680816_">
					<use xlink:href="#SVGID_00000095302601619446185140000005748888635011483272_"  style="overflow:visible;"/>
				</clipPath>
				<g style="clip-path:url(#SVGID_00000155857474184305023890000004926505013681680816_);">
					
						<image style="overflow:visible;" width="991.5" height="991.5" xlink:href="722DCAFD5EE62203.png"  transform="matrix(1 0 0 1 416.065 416.0656)"/>
				</g>
			</g>
		</g>
	</g>
</g>
<g id="Layer_2">
</g>
</svg>
