<?xml version="1.0" encoding="utf-8"?>
<!-- Generator: Adobe Illustrator 25.4.1, SVG Export Plug-In . SVG Version: 6.00 Build 0)  -->
<svg version="1.1" xmlns="http://www.w3.org/2000/svg" xmlns:xlink="http://www.w3.org/1999/xlink" x="0px" y="0px"
	 viewBox="0 0 1823.6 1823.6" style="enable-background:new 0 0 1823.6 1823.6;" xml:space="preserve">
<style type="text/css">
	.st0{fill:url(#SVGID_1_);}
	.st1{fill:url(#SVGID_00000078043129432281019370000008877111996369144740_);}
	.st2{fill:#FFFFFF;}
	.st3{fill:none;}
</style>
<g id="Layer_1">
	<g>
		<linearGradient id="SVGID_1_" gradientUnits="userSpaceOnUse" x1="0" y1="911.7981" x2="1823.5988" y2="911.7981">
			<stop  offset="0" style="stop-color:#4D4D4D"/>
			<stop  offset="0.2393" style="stop-color:#F2F2F2"/>
			<stop  offset="0.2892" style="stop-color:#CCCCCC"/>
			<stop  offset="0.3695" style="stop-color:#969696"/>
			<stop  offset="0.4389" style="stop-color:#6E6E6E"/>
			<stop  offset="0.4939" style="stop-color:#565656"/>
			<stop  offset="0.5276" style="stop-color:#4D4D4D"/>
			<stop  offset="0.5612" style="stop-color:#555555"/>
			<stop  offset="0.6133" style="stop-color:#6B6B6B"/>
			<stop  offset="0.6772" style="stop-color:#8E8E8E"/>
			<stop  offset="0.7498" style="stop-color:#BFBFBF"/>
			<stop  offset="0.816" style="stop-color:#F2F2F2"/>
			<stop  offset="1" style="stop-color:#4D4D4D"/>
		</linearGradient>
		<path class="st0" d="M911.8,0C408.2,0,0,408.2,0,911.8c0,503.6,408.2,911.8,911.8,911.8c503.6,0,911.8-408.2,911.8-911.8
			C1823.6,408.2,1415.4,0,911.8,0z M911.8,1679.1c-423.8,0-767.3-343.5-767.3-767.3c0-423.7,343.5-767.3,767.3-767.3
			c423.7,0,767.3,343.5,767.3,767.3C1679.1,1335.5,1335.5,1679.1,911.8,1679.1z"/>
	</g>
	
		<radialGradient id="SVGID_00000181806160080098340660000010654063141499977104_" cx="911.7991" cy="911.7996" r="831.7435" gradientUnits="userSpaceOnUse">
		<stop  offset="0.5092" style="stop-color:#000000"/>
		<stop  offset="0.9264" style="stop-color:#333333"/>
	</radialGradient>
	<path style="fill:url(#SVGID_00000181806160080098340660000010654063141499977104_);" d="M911.8,80.1
		c-459.4,0-831.7,372.4-831.7,831.7c0,459.4,372.4,831.7,831.7,831.7s831.7-372.4,831.7-831.7C1743.5,452.4,1371.2,80.1,911.8,80.1z
		 M911.8,1541.8c-347.9,0-630-282.1-630-630s282-630,630-630c347.9,0,630,282.1,630,630S1259.7,1541.8,911.8,1541.8z"/>
	<g>
		<g>
			<path class="st2" d="M884.3,219.2c0-5.4,0.5-10.3,1.6-14.7c1-4.5,2.6-8.3,4.6-11.5c2-3.2,4.5-5.7,7.4-7.5c2.9-1.8,6.3-2.6,10-2.6
				c3.9,0,7.3,0.9,10.2,2.7c2.9,1.8,5.4,4.4,7.4,7.6c2,3.3,3.5,7.2,4.5,11.8c1,4.6,1.5,9.6,1.5,15.1c0,4.5-0.5,8.8-1.6,12.9
				c-1.1,4-2.6,7.6-4.6,10.6c-2,3-4.5,5.4-7.4,7.2c-2.9,1.8-6.2,2.6-9.9,2.6c-3.9,0-7.2-0.9-10.1-2.7c-2.9-1.8-5.4-4.3-7.4-7.4
				c-2-3.1-3.5-6.7-4.5-10.8C884.8,228.2,884.3,223.9,884.3,219.2z M907.8,249.5c1.9,0,3.7-0.7,5.3-2.2c1.6-1.5,3.1-3.6,4.3-6.4
				c1.2-2.8,2.2-6.2,2.8-10.2c0.7-4,1-8.5,1-13.6c0-9.8-1.1-17.3-3.3-22.6c-2.2-5.3-5.6-7.9-10.1-7.9c-4.5,0-7.9,2.6-10.1,7.9
				c-2.2,5.3-3.3,12.8-3.3,22.6c0,10.6,1.1,18.7,3.4,24.2C900.1,246.8,903.5,249.5,907.8,249.5z"/>
			<g>
				<path class="st2" d="M1334.6,322.3l-30.5,40.5l7.2,7c-0.4,0.9-1,1.7-2,2.7c-2.7-2.3-6.5-5.2-11.3-8.8c-4-3-7.9-5.9-11.7-8.6
					c0.4-1,1-1.9,2-2.6l8.5,5.3c2-2.3,4.3-5.1,6.7-8.3l27.7-36.8l-10-5.1c0.5-1,1.3-2.1,2.4-3.2l18.8,7c0.1,0.7,0,1.4-0.3,1.8
					c-1.1,1-2.7,3-5,5.9L1334.6,322.3z"/>
				<path class="st2" d="M1336.2,351.7c3.2-4.3,6.6-7.9,10.1-10.8c3.5-2.9,7-5.1,10.6-6.4c3.5-1.4,7-1.9,10.4-1.5
					c3.4,0.3,6.6,1.6,9.6,3.9c3.1,2.3,5.2,5.1,6.5,8.3c1.2,3.2,1.7,6.7,1.3,10.5c-0.4,3.8-1.6,7.8-3.5,12.1
					c-1.9,4.2-4.6,8.6-7.9,12.9c-2.7,3.6-5.7,6.7-9,9.3c-3.3,2.6-6.6,4.5-10.1,5.7c-3.4,1.2-6.8,1.6-10.2,1.3
					c-3.4-0.3-6.5-1.6-9.5-3.8c-3.1-2.3-5.2-5.1-6.5-8.3c-1.2-3.2-1.7-6.6-1.4-10.3c0.3-3.7,1.3-7.5,2.9-11.4
					C1331.2,359.2,1333.4,355.4,1336.2,351.7z M1336.7,390.1c1.5,1.1,3.4,1.6,5.6,1.4c2.2-0.2,4.6-1,7.3-2.6
					c2.7-1.5,5.4-3.7,8.4-6.5c2.9-2.8,5.9-6.2,9-10.2c5.9-7.8,9.5-14.5,10.9-20c1.4-5.5,0.3-9.7-3.3-12.4c-3.6-2.7-7.9-2.7-12.8,0.2
					c-4.9,2.9-10.3,8.2-16.2,16c-6.4,8.5-10.3,15.6-11.8,21.4C1332.2,383.2,1333.3,387.4,1336.7,390.1z"/>
			</g>
			<g>
				<path class="st2" d="M1559.3,721l-13.6-37.3l6-2.2c13,6.6,23.1,10.8,30.6,12.4c7.4,1.7,14.6,1.3,21.4-1.2c4.1-1.5,6.9-3.5,8.5-6
					c1.6-2.5,1.8-5.3,0.7-8.4c-0.8-2.2-2.5-3.6-5-4.3c-2.5-0.7-6.4-0.6-11.5,0.2c-2-4.7-2.3-7.9-1.1-9.4
					c10.7-1.3,17.8,2.8,21.3,12.5c2.2,6.1,2.5,11.2,0.7,15.3c-1.8,4.1-5.3,7.1-10.6,9c-12.7,4.6-29.5,0.3-50.3-13l7.7,21.1
					c1.2,2.8,2.6,5.6,4.2,8.2C1564.8,719,1561.8,720,1559.3,721z"/>
				<path class="st2" d="M1593.4,719.9c5.1-1.8,9.8-3,14.4-3.6c4.5-0.5,8.7-0.4,12.4,0.4c3.7,0.8,6.9,2.3,9.6,4.4
					c2.6,2.1,4.6,5,5.9,8.5c1.3,3.6,1.6,7.1,0.9,10.5c-0.7,3.4-2.3,6.5-4.7,9.5c-2.4,3-5.6,5.7-9.5,8.2c-3.9,2.5-8.5,4.7-13.6,6.6
					c-4.3,1.6-8.5,2.5-12.6,2.9c-4.2,0.4-8,0.1-11.5-0.7c-3.5-0.9-6.6-2.4-9.3-4.5c-2.6-2.1-4.6-4.9-5.9-8.4
					c-1.3-3.6-1.6-7.1-0.9-10.5c0.7-3.4,2.2-6.5,4.4-9.4c2.2-2.9,5.1-5.6,8.6-7.9C1585.1,723.5,1589,721.5,1593.4,719.9z
					 M1572.9,752.4c0.6,1.8,2,3.2,3.9,4.2c2,1,4.4,1.7,7.5,1.8c3,0.2,6.6-0.1,10.6-0.8c4-0.7,8.4-2,13.1-3.7
					c9.2-3.4,15.9-7,20.1-10.8c4.2-3.9,5.5-8,3.9-12.2c-1.5-4.3-5.2-6.5-10.9-6.8c-5.7-0.3-13.2,1.3-22.4,4.6
					c-10,3.6-17.2,7.5-21.5,11.5C1572.9,744.2,1571.4,748.3,1572.9,752.4z"/>
			</g>
			<g>
				<path class="st2" d="M1562.7,1082.3c-1.4,3.1-1.2,6.3,0.4,9.6c1.7,3.2,4.9,5.9,9.9,8.1c4.1,1.8,8.2,1.8,12.2,0
					c4-1.8,7.1-5.4,9.4-10.5c0.4-0.1,1.1,0,2,0.4c0.9,0.4,1.5,0.8,1.9,1.3l-1,2.3c-1.8,4-2,7.6-0.8,10.8c1.2,3.2,3.7,5.7,7.5,7.3
					c4.1,1.8,7.6,2.3,10.5,1.4c2.9-0.9,4.9-2.6,6-5.2c2.1-4.8-0.4-9.5-7.6-13.9c1-2.3,1.8-4,2.5-5c0.7-1,1.6-1.7,2.7-2.1
					c3.9,2.5,6.2,5.8,7.2,9.8c0.9,4,0.3,8.4-1.8,13.2c-2.2,5.1-5.3,8.5-9.3,10.4c-4,1.9-8,1.9-12.2,0.1c-3.5-1.5-6.1-3.9-7.9-7.2
					c-1.8-3.3-2.4-7.2-1.8-11.9l-0.2-0.1c-2.8,4.3-6.1,7.1-9.9,8.5c-3.8,1.4-8,1.1-12.5-0.9c-5.7-2.5-9.6-6.3-11.5-11.4
					c-1.9-5.1-1.5-10.7,1.3-17c2.2-4.9,5-8.6,8.4-11c3.4-2.4,7-2.8,10.8-1.1c0.7,1.6,0.1,4.5-1.9,8.6c-4-0.9-7.1-0.9-9.2,0
					C1565.5,1077.8,1563.8,1079.6,1562.7,1082.3z"/>
				<path class="st2" d="M1578.3,1122.2c4.9,2.2,9.2,4.6,12.9,7.4c3.7,2.7,6.6,5.7,8.7,8.8c2.1,3.1,3.4,6.4,3.9,9.8
					c0.4,3.4-0.1,6.8-1.6,10.2c-1.6,3.5-3.8,6.3-6.6,8.2c-2.8,1.9-6.2,3.2-10,3.6c-3.8,0.5-8,0.3-12.6-0.6
					c-4.6-0.9-9.4-2.5-14.4-4.7c-4.2-1.8-7.9-4-11.1-6.6c-3.3-2.6-5.9-5.4-7.8-8.5c-2-3.1-3.1-6.3-3.6-9.7
					c-0.4-3.4,0.1-6.8,1.6-10.1c1.6-3.5,3.8-6.3,6.6-8.2c2.8-1.9,6.1-3.2,9.7-3.8c3.6-0.6,7.6-0.5,11.7,0.3
					C1569.8,1119,1574,1120.3,1578.3,1122.2z M1541.1,1131.5c-0.8,1.7-0.8,3.7-0.1,5.8c0.7,2.1,2.1,4.3,4.1,6.5
					c2.1,2.2,4.8,4.5,8.2,6.7c3.4,2.2,7.4,4.4,12,6.4c9,4,16.3,6,22,6.1c5.7,0.1,9.5-1.9,11.3-6.1c1.8-4.1,0.8-8.3-3.1-12.4
					c-3.9-4.2-10.4-8.2-19.3-12.2c-9.7-4.3-17.6-6.5-23.5-6.6C1546.7,1125.6,1542.8,1127.5,1541.1,1131.5z"/>
			</g>
			<g>
				<path class="st2" d="M1352.1,1500.8l-28-35.4c-2.6,2.3-4.8,4.5-6.5,6.5c-2.1-2.9-3.5-4.8-4.2-5.6l7-5.6l-7.7-9.7l-7.4,4.3
					c-0.5-0.5-0.9-0.8-1.1-1.1c-0.3-0.4-0.6-0.9-1-1.6c2.9-2.1,6.4-4.7,10.4-7.9c2.9-2.3,6.2-4.9,9.8-7.9c0.5,0.3,0.8,0.7,1.2,1.1
					c0.3,0.4,0.6,0.9,0.8,1.5l-6,5.9c1.7,2.6,4.3,5.9,7.6,10.2l21.2-16.8c1.6,1.2,3.1,2.6,4.4,4.2l3.4,54.9l-3,2.9
					C1352.9,1500.7,1352.5,1500.8,1352.1,1500.8z M1346,1479.3l4.7,7l0.2,0l-1.1-7.6l-1.5-32.4l-17.5,13.8L1346,1479.3z"/>
				<path class="st2" d="M1315.8,1484.5c3.3,4.2,6,8.4,7.9,12.5c2,4.1,3.1,8.1,3.6,11.9c0.4,3.8,0,7.3-1.2,10.4
					c-1.2,3.2-3.3,6-6.2,8.3c-3,2.4-6.3,3.8-9.7,4.2c-3.4,0.4-6.9-0.1-10.5-1.4c-3.6-1.3-7.2-3.5-10.8-6.4c-3.6-3-7.1-6.6-10.5-10.9
					c-2.8-3.6-5.1-7.2-6.7-11.1c-1.7-3.8-2.6-7.5-2.9-11.2c-0.3-3.6,0.2-7,1.4-10.2c1.2-3.2,3.2-5.9,6.1-8.2c3-2.4,6.3-3.8,9.7-4.2
					c3.4-0.4,6.9,0,10.4,1.2c3.5,1.2,6.9,3.1,10.2,5.7C1309.8,1477.8,1312.9,1480.9,1315.8,1484.5z M1278.6,1475.3
					c-1.5,1.2-2.4,2.9-2.8,5.1c-0.4,2.2-0.2,4.8,0.6,7.7c0.8,3,2.2,6.2,4.1,9.8c2,3.6,4.5,7.3,7.6,11.3c6.1,7.7,11.6,12.9,16.6,15.7
					c5,2.8,9.3,2.7,12.8-0.1c3.6-2.8,4.6-7,3-12.5c-1.5-5.5-5.3-12.1-11.4-19.8c-6.6-8.4-12.5-14-17.7-16.8
					C1286.3,1472.7,1282,1472.6,1278.6,1475.3z"/>
			</g>
			<g>
				<path class="st2" d="M934.2,1627.1l6.1-0.1l-0.1-15.4c-2.7,0.2-4.6,0.4-5.6,0.4c-8.2,0.1-14.2-1.8-18.1-5.8
					c-3.9-3.9-5.8-9.2-5.9-16c-0.1-7.1,1.7-12.8,5.4-17c3.7-4.2,9.1-6.4,16.2-6.4c5.3,0,9.6,1,13,3.1c3.4,2.1,5.2,5.3,5.2,9.4
					c-1.2,1.3-4,1.9-8.6,1.8c-0.9-4.4-2.1-7.3-3.8-8.7c-1.6-1.4-3.9-2.2-6.8-2.1c-7.9,0.1-11.8,6.4-11.7,19.1
					c0.1,12.1,6.1,18.2,17.9,18.1c2.3,0,5-0.3,7.9-0.8l0.2,28.6l-32.2,0.3c0-2.7-0.1-5.9-0.2-9.5c2.6,0.5,5.7,0.8,9.2,1
					L934.2,1627.1z"/>
				<path class="st2" d="M901.4,1601.2c0,5.4-0.4,10.3-1.4,14.7c-1,4.5-2.5,8.3-4.5,11.5c-2,3.2-4.4,5.8-7.3,7.5
					c-2.9,1.8-6.2,2.7-10,2.7c-3.9,0-7.3-0.9-10.2-2.6c-2.9-1.8-5.4-4.3-7.4-7.6c-2-3.3-3.5-7.2-4.6-11.7c-1-4.6-1.6-9.6-1.6-15.1
					c0-4.5,0.5-8.8,1.5-12.9c1-4,2.5-7.6,4.5-10.6c2-3,4.4-5.4,7.3-7.2c2.9-1.8,6.2-2.7,9.9-2.7c3.9,0,7.3,0.9,10.2,2.7
					c2.9,1.8,5.4,4.2,7.4,7.3c2,3.1,3.5,6.7,4.6,10.8C900.8,1592.2,901.4,1596.6,901.4,1601.2z M877.6,1571.1
					c-1.9,0-3.7,0.8-5.3,2.3c-1.6,1.5-3,3.7-4.2,6.5c-1.2,2.8-2.1,6.2-2.7,10.2c-0.6,4-0.9,8.5-0.9,13.6c0.1,9.8,1.3,17.3,3.5,22.6
					c2.3,5.2,5.7,7.8,10.2,7.8c4.5,0,7.9-2.7,10.1-8c2.2-5.3,3.2-12.8,3.1-22.6c-0.1-10.6-1.3-18.7-3.6-24.1
					C885.3,1573.8,882,1571.1,877.6,1571.1z"/>
			</g>
			<g>
				<path class="st2" d="M548,1501.4c-8,10-15.8,16.4-23.3,19.1c-7.5,2.7-14.2,1.8-19.9-2.9c-3.8-3-6.3-6.4-7.5-10.2
					c-1.2-3.8-0.7-7.5,1.4-11c2.9,0.3,5.8,1.5,8.7,3.6c-2,3.6-3,6.6-3,8.9c0,2.3,1.1,4.4,3.4,6.2c3.5,2.8,7.8,2.8,13.2,0.2
					c5.3-2.6,11.1-7.8,17.2-15.5l-0.1-0.1c-6.3,2.3-12.1,1.4-17.5-2.9c-4.9-3.9-7.3-8.5-7.3-13.7c0.1-5.2,1.9-10.1,5.4-14.6
					c4.1-5.1,9-8.3,14.7-9.5c5.7-1.2,11,0.1,15.6,3.8c2.7,2.1,4.7,4.5,6.1,7.1c1.4,2.6,2.2,5.2,2.3,7.8c0.1,2.6-0.2,5.3-1,8.1
					c-0.8,2.8-1.9,5.5-3.3,8C551.7,1496.4,550,1498.9,548,1501.4z M526,1474.8c-2.9,3.6-4.6,7.3-5.2,11c-0.6,3.7,0.5,6.6,3.2,8.8
					c3.3,2.7,6.7,3.6,10.3,2.8c3.5-0.8,6.8-3.1,9.8-6.9c4.5-5.7,6.9-10.5,7.3-14.4c0.4-4-1.2-7.3-4.6-10
					C541.2,1461.4,534.3,1464.4,526,1474.8z"/>
				<path class="st2" d="M505.4,1471.7c-3.4,4.2-6.8,7.7-10.4,10.6c-3.6,2.8-7.2,4.9-10.7,6.2c-3.6,1.3-7.1,1.7-10.4,1.2
					c-3.4-0.4-6.5-1.8-9.5-4.2c-3-2.4-5.1-5.2-6.3-8.5c-1.1-3.2-1.5-6.8-1-10.6c0.5-3.8,1.8-7.8,3.8-12c2.1-4.2,4.8-8.4,8.2-12.7
					c2.8-3.5,5.9-6.6,9.2-9.1c3.3-2.5,6.7-4.3,10.2-5.4c3.5-1.1,6.9-1.4,10.3-1c3.4,0.4,6.5,1.8,9.4,4.1c3,2.4,5.1,5.2,6.2,8.5
					c1.1,3.2,1.5,6.7,1.2,10.4c-0.4,3.7-1.5,7.4-3.2,11.3C510.6,1464.3,508.3,1468,505.4,1471.7z M505.9,1433.3
					c-1.5-1.2-3.3-1.7-5.6-1.6c-2.2,0.1-4.7,0.9-7.3,2.4c-2.7,1.4-5.5,3.5-8.6,6.2c-3,2.7-6.1,6-9.2,10c-6.1,7.7-9.9,14.2-11.5,19.7
					c-1.6,5.5-0.5,9.7,3,12.5c3.5,2.8,7.8,2.9,12.8,0.1c5-2.7,10.6-7.9,16.7-15.6c6.6-8.3,10.7-15.3,12.4-21.1
					C510.2,1440.2,509.3,1436,505.9,1433.3z"/>
			</g>
			<g>
				<path class="st2" d="M229.4,1136.9c1.5-1.2,3.3-2.1,5.3-2.8l64.4-1l3.5,9.6l-63.8-4.5l4.3,11.9c3.1,7.5,5.9,12.8,8.5,15.8
					l0.7,2.1l-10.4,3.7L229.4,1136.9z"/>
				<path class="st2" d="M259.5,1119c-5.1,1.8-9.8,3-14.4,3.5c-4.5,0.5-8.7,0.4-12.4-0.4c-3.7-0.8-6.9-2.3-9.5-4.4
					c-2.6-2.1-4.6-5-5.9-8.5c-1.3-3.6-1.6-7.1-0.9-10.5c0.7-3.4,2.3-6.5,4.7-9.5c2.4-3,5.6-5.7,9.5-8.2c3.9-2.5,8.5-4.7,13.7-6.5
					c4.3-1.5,8.5-2.5,12.6-2.9c4.2-0.4,8-0.1,11.5,0.8c3.5,0.9,6.6,2.4,9.3,4.5c2.7,2.1,4.6,4.9,5.9,8.4c1.3,3.6,1.6,7.1,0.9,10.5
					c-0.7,3.4-2.2,6.5-4.5,9.4c-2.2,2.9-5.1,5.6-8.7,7.9C267.8,1115.5,263.9,1117.4,259.5,1119z M280.1,1086.6
					c-0.6-1.8-1.9-3.2-3.9-4.3c-2-1-4.4-1.7-7.5-1.9c-3.1-0.2-6.6,0.1-10.6,0.8c-4,0.7-8.4,1.9-13.1,3.6
					c-9.2,3.3-15.9,6.9-20.1,10.8c-4.2,3.9-5.5,7.9-4,12.2c1.5,4.3,5.1,6.5,10.9,6.8c5.7,0.3,13.2-1.2,22.4-4.5
					c10-3.6,17.2-7.4,21.6-11.4C280.1,1094.8,281.5,1090.7,280.1,1086.6z"/>
			</g>
			<g>
				<path class="st2" d="M252,783c-3.7-1.2-6.6-3.2-8.7-6.2c-2.1-3-3.4-6.5-3.9-10.6c-3,2.4-6.1,4.1-9.2,5.1
					c-3.1,0.9-6.6,0.8-10.4-0.4c-4.6-1.5-8.1-4.5-10.3-9.1c-2.3-4.6-2.5-9.5-0.8-14.8c1.9-5.9,4.8-10,8.7-12.1c3.9-2.2,8.2-2.5,13-1
					c6.7,2.1,11.1,7.3,13.2,15.6c3.9-3.7,7.4-6.2,10.6-7.6c3.2-1.3,6.6-1.4,10.1-0.3c4.8,1.5,8.4,4.7,10.9,9.6
					c2.5,4.9,2.7,10.6,0.5,17.3c-2,6.4-5.2,10.8-9.5,13.3C261.9,784.2,257.2,784.6,252,783z M245.9,760c-1.3,1.4-2.6,2.6-3.8,3.7
					c1,2.3,2.7,4.4,5.1,6.4c2.4,1.9,5,3.3,7.9,4.3c3.9,1.2,7.5,1.3,10.7,0.2c3.3-1.1,5.5-3.6,6.7-7.4c1.3-4.2,1.3-7.7-0.2-10.4
					c-1.4-2.8-4-4.7-7.8-5.9c-3-1-5.8-0.7-8.4,0.7C253.6,752.9,250.2,755.8,245.9,760z M220.4,761.6c3.3,1,6.4,0.8,9.4-0.8
					c3-1.5,6.8-4.6,11.3-9.1c-2.2-4.3-6.1-7.4-11.7-9.2c-4.4-1.4-8.1-1.7-11.2-0.8c-3.1,0.8-5.2,2.9-6.2,6.1c-1,3-0.8,5.8,0.5,8.2
					C213.8,758.5,216.4,760.3,220.4,761.6z"/>
				<path class="st2" d="M252.8,728.1c-5.1-1.6-9.6-3.6-13.6-5.9c-3.9-2.3-7.1-4.9-9.6-7.8c-2.5-2.9-4.1-6-4.9-9.3
					c-0.8-3.3-0.6-6.7,0.5-10.3c1.2-3.7,3.1-6.6,5.7-8.9c2.6-2.2,5.8-3.8,9.5-4.7c3.7-0.9,7.9-1.1,12.6-0.7
					c4.7,0.4,9.6,1.5,14.8,3.1c4.3,1.4,8.2,3.2,11.8,5.4c3.5,2.2,6.4,4.8,8.7,7.6c2.3,2.8,3.8,5.9,4.6,9.2c0.8,3.3,0.6,6.7-0.5,10.3
					c-1.2,3.7-3.1,6.6-5.7,8.9c-2.6,2.2-5.7,3.8-9.3,4.8c-3.6,0.9-7.5,1.3-11.7,1C261.5,730.4,257.2,729.6,252.8,728.1z
					 M288.8,714.9c0.6-1.8,0.4-3.7-0.5-5.8c-0.9-2-2.5-4-4.8-6c-2.3-2-5.3-3.9-8.9-5.8c-3.6-1.9-7.8-3.5-12.6-5.1
					c-9.3-3-16.8-4.2-22.5-3.7c-5.7,0.5-9.2,2.9-10.6,7.3c-1.4,4.3,0.1,8.3,4.5,12c4.4,3.7,11.2,7,20.5,10c10.1,3.2,18.2,4.6,24.1,4
					C283.8,721.4,287.5,719.1,288.8,714.9z"/>
			</g>
			<g>
				<path class="st2" d="M488.8,354.8c7.5,10.5,11.6,19.6,12.1,27.6c0.6,7.9-2.1,14.1-8.1,18.4c-3.9,2.8-7.9,4.3-11.9,4.4
					c-4,0.1-7.4-1.3-10.2-4.3c1-2.7,3-5.1,5.8-7.4c3,2.9,5.6,4.7,7.8,5.3c2.2,0.7,4.5,0.1,6.9-1.6c3.6-2.6,4.8-6.8,3.7-12.6
					c-1.1-5.8-4.5-12.7-10.3-20.8l-0.1,0.1c0.6,6.7-2,12.1-7.6,16.1c-4.9,3.5-9.9,4.5-14.9,3c-5-1.5-9.2-4.6-12.5-9.2
					c-3.8-5.3-5.4-10.9-4.9-16.8c0.5-6,3.1-10.6,7.8-14c2.8-2,5.6-3.3,8.5-3.9c2.9-0.6,5.5-0.6,8,0c2.5,0.6,4.9,1.7,7.4,3.3
					c2.5,1.6,4.7,3.4,6.7,5.4C484.9,349.8,486.9,352.1,488.8,354.8z M457.6,368.4c2.7,3.7,5.7,6.4,9.1,8c3.4,1.6,6.4,1.5,9-0.4
					c3.5-2.5,5.3-5.5,5.4-9.1c0.2-3.6-1.2-7.4-4-11.3c-4.2-5.9-8.2-9.5-11.9-10.9c-3.7-1.4-7.4-0.9-10.9,1.7c-2.7,2-3.8,4.9-3.1,8.8
					C451.9,359,454.1,363.4,457.6,368.4z"/>
				<path class="st2" d="M498.6,354.5c-3.1-4.4-5.6-8.6-7.3-12.9c-1.8-4.2-2.8-8.2-3-12c-0.2-3.8,0.3-7.3,1.6-10.4
					c1.3-3.1,3.5-5.8,6.6-8c3.1-2.3,6.4-3.5,9.8-3.7c3.4-0.2,6.9,0.4,10.4,1.9c3.5,1.5,7,3.8,10.5,6.9c3.5,3.1,6.8,6.9,10,11.4
					c2.7,3.7,4.7,7.5,6.2,11.4c1.5,3.9,2.3,7.7,2.4,11.3c0.1,3.6-0.5,7-1.8,10.1c-1.3,3.1-3.5,5.8-6.5,7.9c-3.1,2.3-6.4,3.5-9.8,3.7
					c-3.4,0.2-6.9-0.3-10.3-1.7c-3.4-1.4-6.8-3.4-10-6.2C504.3,361.5,501.3,358.3,498.6,354.5z M535.4,365.4c1.6-1.1,2.6-2.8,3-4.9
					c0.5-2.2,0.4-4.7-0.3-7.7c-0.7-3-1.9-6.3-3.7-9.9c-1.8-3.6-4.2-7.5-7.1-11.6c-5.7-8-11-13.4-15.9-16.4c-4.9-3-9.1-3.2-12.8-0.5
					c-3.7,2.6-4.9,6.8-3.6,12.3c1.3,5.6,4.8,12.3,10.5,20.3c6.2,8.6,11.9,14.5,16.9,17.6C527.6,367.6,531.9,367.9,535.4,365.4z"/>
			</g>
			<g>
				<g>
					<path class="st2" d="M895.8,1742.9l1-92.2c3.4,0,6.8,0,10.2,0l1.5,0l0.6,92.2l-2,0C903.4,1743,899.6,1743,895.8,1742.9z"/>
					<path class="st2" d="M434.2,1585.3c-3.1-2.2-6.2-4.4-9.2-6.7l54.6-74.3c2.7,2,5.5,4,8.3,6L434.2,1585.3z"/>
					<path class="st2" d="M1391.9,1591.6l-53.6-75c2.8-2,5.5-4,8.2-6l54.6,74.3C1398.1,1587.2,1395,1589.4,1391.9,1591.6z"/>
					<path class="st2" d="M129.3,1169.2c-1.2-3.6-2.3-7.2-3.5-10.9l88-27.6c1,3.2,2.1,6.5,3.1,9.7L129.3,1169.2z"/>
					<path class="st2" d="M1703.6,1169.5l-87.4-29.3c1.1-3.2,2.1-6.5,3.2-9.7l87.8,28.1C1706,1162.3,1704.8,1165.9,1703.6,1169.5z"
						/>
					<path class="st2" d="M204.3,721l-87.8-28.3c1.2-3.6,2.4-7.3,3.6-10.9l87.4,29.5C206.4,714.6,205.3,717.8,204.3,721z"/>
					<path class="st2" d="M1629.9,709.8c-1-3.2-2.1-6.5-3.1-9.7l87.6-28.8c1.2,3.6,2.4,7.2,3.5,10.9L1629.9,709.8z"/>
					<path class="st2" d="M466.9,326.9l-54.5-74.3c3.1-2.3,6.2-4.5,9.3-6.7l53.5,75.1C472.3,323,469.6,324.9,466.9,326.9z"/>
					<path class="st2" d="M1357.8,322.4c-2.7-2-5.5-4-8.2-6l53.9-74.8c3.1,2.2,6.2,4.5,9.2,6.8L1357.8,322.4z"/>
					<path class="st2" d="M902.3,172.8l-0.1-92.2h0.5c3.7,0,7.2,0,10.7,0l-0.8,92.2c-3.1,0-6.3,0-9.4,0L902.3,172.8z"/>
				</g>
				<g>
					<path class="st2" d="M937.9,1739.7l-1.1-33.6c2.5-0.1,4.9-0.2,7.4-0.3l1.4,33.6C943,1739.6,940.5,1739.7,937.9,1739.7z"/>
					<path class="st2" d="M825.2,1736.4c-2.5-0.3-5.1-0.6-7.6-1l4.3-33.3c2.4,0.3,4.9,0.6,7.3,0.9L825.2,1736.4z"/>
					<path class="st2" d="M868,1740c-2.5-0.3-5.1-0.6-7.6-1l4.3-33.3c2.4,0.3,4.9,0.6,7.3,0.9L868,1740z"/>
					<path class="st2" d="M991.4,1736.3l-3.3-33.4c2.4-0.2,4.9-0.5,7.3-0.7l3.5,33.4C996.5,1735.8,993.9,1736,991.4,1736.3z"/>
					<path class="st2" d="M774.1,1729.3c-2.5-0.5-5-0.9-7.5-1.4l6.5-33c2.4,0.5,4.8,0.9,7.2,1.4L774.1,1729.3z"/>
					<path class="st2" d="M1044.5,1729.5l-5.3-33.2c2.4-0.4,4.8-0.8,7.2-1.2l5.7,33.1C1049.5,1728.6,1047,1729.1,1044.5,1729.5z"/>
					<path class="st2" d="M725.4,1719.3c-2.5-0.6-5-1.3-7.4-1.9l8.6-32.5c2.4,0.6,4.8,1.3,7.2,1.9L725.4,1719.3z"/>
					<path class="st2" d="M1097.1,1719.2l-7.5-32.7c2.4-0.6,4.8-1.1,7.2-1.7l7.8,32.7C1102,1718.1,1099.6,1718.6,1097.1,1719.2z"/>
					<path class="st2" d="M677.1,1709.1c-2.4-0.8-4.9-1.6-7.3-2.4l10.8-31.8c2.3,0.8,4.6,1.6,7,2.3L677.1,1709.1z"/>
					<path class="st2" d="M1148.9,1705.6l-9.6-32.2c2.4-0.7,4.7-1.4,7-2.1l9.9,32.1C1153.8,1704.1,1151.3,1704.9,1148.9,1705.6z"/>
					<path class="st2" d="M630.7,1687.8c-2.4-1-4.8-1.9-7.1-2.9l12.8-31.1c2.3,0.9,4.5,1.9,6.8,2.8L630.7,1687.8z"/>
					<path class="st2" d="M1199.7,1688.7l-11.6-31.5c2.3-0.8,4.6-1.7,6.9-2.6l11.9,31.4C1204.5,1686.9,1202.1,1687.8,1199.7,1688.7z
						"/>
					<path class="st2" d="M580.2,1667.4c-2.3-1.1-4.6-2.2-6.9-3.4l14.8-30.1c2.2,1.1,4.4,2.2,6.6,3.2L580.2,1667.4z"/>
					<path class="st2" d="M1249.3,1668.4l-13.7-30.7c2.2-1,4.5-2,6.7-3l14,30.5C1254,1666.3,1251.6,1667.4,1249.3,1668.4z"/>
					<path class="st2" d="M525.7,1644.9c-2.2-1.2-4.4-2.5-6.7-3.8l16.7-29.1c2.1,1.2,4.3,2.4,6.4,3.6L525.7,1644.9z"/>
					<path class="st2" d="M1297.4,1645l-15.7-29.7c2.2-1.1,4.3-2.3,6.5-3.4l15.9,29.6C1301.9,1642.6,1299.7,1643.8,1297.4,1645z"/>
					<path class="st2" d="M469.5,1614.7c-2.1-1.4-4.3-2.8-6.4-4.2l18.6-28c2,1.4,4.1,2.7,6.1,4L469.5,1614.7z"/>
					<path class="st2" d="M1343.9,1618.6l-17.5-28.7c2.1-1.3,4.1-2.6,6.2-3.8l17.8,28.5C1348.2,1615.9,1346,1617.2,1343.9,1618.6z"
						/>
					<path class="st2" d="M396.8,1560.3c-2-1.6-4-3.2-6-4.8l21.1-26.1c1.9,1.5,3.8,3.1,5.7,4.6L396.8,1560.3z"/>
					<path class="st2" d="M1431.3,1556.9l-21.1-26.1c1.9-1.5,3.8-3.1,5.7-4.6l21.4,25.9C1435.2,1553.6,1433.2,1555.3,1431.3,1556.9z
						"/>
					<path class="st2" d="M356,1525.6c-1.9-1.7-3.8-3.4-5.6-5.1l22.8-24.7c1.8,1.7,3.6,3.3,5.4,5L356,1525.6z"/>
					<path class="st2" d="M1471.8,1521.9l-22.7-24.7c1.8-1.7,3.6-3.3,5.4-5l23,24.5C1475.5,1518.4,1473.6,1520.2,1471.8,1521.9z"/>
					<path class="st2" d="M317.5,1488.3c-1.8-1.8-3.5-3.7-5.3-5.5l24.4-23.1c1.7,1.8,3.4,3.5,5.1,5.3L317.5,1488.3z"/>
					<path class="st2" d="M1510,1484.4l-24.3-23.2c1.7-1.8,3.4-3.5,5-5.3l24.5,23C1513.5,1480.7,1511.7,1482.5,1510,1484.4z"/>
					<path class="st2" d="M281.5,1448.7c-1.6-1.9-3.3-3.9-4.9-5.8l25.8-21.6c1.6,1.9,3.2,3.8,4.8,5.6L281.5,1448.7z"/>
					<path class="st2" d="M1545.7,1444.5l-25.7-21.6c1.6-1.9,3.1-3.8,4.7-5.6l25.9,21.3C1549,1440.6,1547.3,1442.5,1545.7,1444.5z"
						/>
					<path class="st2" d="M248.1,1406.9c-1.5-2-3-4.1-4.5-6.1l27.1-19.9c1.4,2,2.9,3.9,4.4,5.9L248.1,1406.9z"/>
					<path class="st2" d="M1578.8,1402.3l-27.1-19.9c1.5-2,2.9-4,4.3-5.9l27.3,19.6C1581.8,1398.2,1580.3,1400.3,1578.8,1402.3z"/>
					<path class="st2" d="M217.5,1363c-1.4-2.1-2.8-4.3-4.1-6.4l28.3-18c1.3,2.1,2.6,4.1,4,6.2L217.5,1363z"/>
					<path class="st2" d="M1609.1,1358.2l-28.3-18.1c1.3-2.1,2.6-4.1,3.9-6.2l28.5,17.8C1611.8,1353.9,1610.5,1356,1609.1,1358.2z"
						/>
					<path class="st2" d="M189.9,1317.2c-1.2-2.2-2.5-4.4-3.7-6.7l29.5-16.2c1.2,2.1,2.4,4.3,3.5,6.4L189.9,1317.2z"/>
					<path class="st2" d="M1636.5,1312.1l-29.4-16.2c1.2-2.2,2.4-4.3,3.5-6.5l29.6,16C1639,1307.6,1637.7,1309.9,1636.5,1312.1z"/>
					<path class="st2" d="M165.2,1269.7c-1.1-2.3-2.2-4.6-3.3-6.9l30.4-14.3c1,2.2,2.1,4.5,3.2,6.7L165.2,1269.7z"/>
					<path class="st2" d="M1660.9,1264.3l-30.4-14.3c1.1-2.2,2.1-4.4,3.1-6.7l30.5,14C1663.1,1259.7,1662,1262,1660.9,1264.3z"/>
					<path class="st2" d="M143.7,1220.7c-0.9-2.4-1.9-4.7-2.8-7.1l31.3-12.3c0.9,2.3,1.8,4.6,2.7,6.9L143.7,1220.7z"/>
					<path class="st2" d="M1682.1,1215.1l-31.2-12.3c0.9-2.3,1.8-4.6,2.7-6.8l31.4,12C1684,1210.3,1683.1,1212.7,1682.1,1215.1z"/>
					<path class="st2" d="M110.5,1118.9c-0.6-2.5-1.3-4.9-1.9-7.4l32.6-8c0.6,2.4,1.2,4.8,1.8,7.1L110.5,1118.9z"/>
					<path class="st2" d="M1714.8,1112.9l-32.6-8.1c0.6-2.4,1.2-4.8,1.8-7.2l32.7,7.8C1716,1107.9,1715.4,1110.4,1714.8,1112.9z"/>
					<path class="st2" d="M98.9,1066.6c-0.5-2.5-0.9-5-1.4-7.5l33.1-5.9c0.4,2.4,0.9,4.8,1.3,7.2L98.9,1066.6z"/>
					<path class="st2" d="M1726.1,1060.5l-33.1-6c0.4-2.4,0.9-4.8,1.3-7.2l33.1,5.6C1727,1055.5,1726.5,1058,1726.1,1060.5z"/>
					<path class="st2" d="M90.7,1013.6c-0.3-2.5-0.6-5-0.9-7.6l33.4-3.8c0.3,2.4,0.6,4.9,0.9,7.3L90.7,1013.6z"/>
					<path class="st2" d="M1733.9,1007.5l-33.4-3.8c0.3-2.4,0.5-4.9,0.8-7.3l33.4,3.5C1734.4,1002.4,1734.2,1005,1733.9,1007.5z"/>
					<path class="st2" d="M85.9,960.3c-0.2-2.5-0.3-5.1-0.4-7.6L119,951c0.1,2.5,0.2,4.9,0.4,7.4L85.9,960.3z"/>
					<path class="st2" d="M1738.2,954.1l-33.6-1.6c0.1-2.5,0.2-4.9,0.3-7.4l33.6,1.3C1738.5,949,1738.3,951.6,1738.2,954.1z"/>
					<path class="st2" d="M118.1,907l-33.6-0.2c0-2.5,0-5.1,0.1-7.6l33.6,0.5C118.1,902.1,118.1,904.5,118.1,907z"/>
					<path class="st2" d="M1705.5,901.1c-0.1-2.4-0.1-4.9-0.2-7.4l33.6-0.9c0.1,2.6,0.1,5.1,0.2,7.6L1705.5,901.1z"/>
					<path class="st2" d="M120.1,855.6l-33.5-2.4c0.2-2.6,0.4-5.1,0.6-7.7l33.5,2.7C120.4,850.7,120.2,853.2,120.1,855.6z"/>
					<path class="st2" d="M1703.1,849.7c-0.2-2.4-0.4-4.9-0.6-7.4l-0.1-1.5l33.5-2.9l0.1,1.5c0.2,2.5,0.4,5.1,0.6,7.6L1703.1,849.7z
						"/>
					<path class="st2" d="M125.4,804.5l-33.3-4.6c0.4-2.5,0.7-5,1.1-7.6l33.3,4.8C126,799.6,125.7,802.1,125.4,804.5z"/>
					<path class="st2" d="M1697.1,797.2c-0.4-2.4-0.7-4.8-1.1-7.3l33.2-5.2c0.4,2.5,0.8,5,1.1,7.6L1697.1,797.2z"/>
					<path class="st2" d="M134,753.8l-32.9-6.7c0.5-2.5,1-5,1.6-7.5l32.8,7C135,749,134.5,751.4,134,753.8z"/>
					<path class="st2" d="M1688,746.6c-0.5-2.4-1-4.8-1.6-7.2l32.8-7.3c0.6,2.5,1.1,5,1.6,7.5L1688,746.6z"/>
					<path class="st2" d="M161.1,654.6l-31.7-11c0.8-2.4,1.7-4.8,2.5-7.2l31.7,11.2C162.7,649.9,161.9,652.2,161.1,654.6z"/>
					<path class="st2" d="M1660.2,647.7c-0.8-2.3-1.6-4.6-2.5-6.9l31.6-11.5c0.9,2.4,1.7,4.8,2.6,7.2L1660.2,647.7z"/>
					<path class="st2" d="M179.5,606.5l-31-13c1-2.4,2-4.7,3-7.1l30.8,13.3C181.4,602,180.4,604.2,179.5,606.5z"/>
					<path class="st2" d="M1641.5,599.8c-1-2.3-1.9-4.5-2.9-6.7l30.8-13.5c1,2.3,2,4.7,3,7L1641.5,599.8z"/>
					<path class="st2" d="M200.9,559.7l-30.1-15c1.1-2.3,2.3-4.6,3.4-6.8l30,15.2C203.1,555.3,202,557.5,200.9,559.7z"/>
					<path class="st2" d="M1619.7,553.4c-1.1-2.2-2.2-4.3-3.3-6.5l29.8-15.5c1.2,2.3,2.3,4.5,3.5,6.8L1619.7,553.4z"/>
					<path class="st2" d="M225.3,514.4l-29-16.9c1.3-2.2,2.6-4.4,3.9-6.6l28.9,17.1C227.8,510.2,226.5,512.3,225.3,514.4z"/>
					<path class="st2" d="M1595,508.4c-1.2-2.1-2.5-4.2-3.8-6.3l28.7-17.4c1.3,2.2,2.6,4.3,3.9,6.5L1595,508.4z"/>
					<path class="st2" d="M252.6,470.8l-27.9-18.7c1.4-2.1,2.9-4.2,4.3-6.3l27.7,19C255.3,466.8,253.9,468.8,252.6,470.8z"/>
					<path class="st2" d="M1567.5,465.2c-1.4-2-2.8-4-4.2-6l27.5-19.2c1.5,2.1,2.9,4.2,4.3,6.3L1567.5,465.2z"/>
					<path class="st2" d="M282.6,429.1l-26.6-20.5c1.6-2,3.1-4,4.7-6l26.4,20.7C285.6,425.2,284.1,427.1,282.6,429.1z"/>
					<path class="st2" d="M1537.1,423.8c-1.5-1.9-3-3.8-4.5-5.7l26.2-21c1.6,2,3.2,4,4.7,6L1537.1,423.8z"/>
					<path class="st2" d="M315.2,389.4l-25.3-22.1c1.7-1.9,3.4-3.8,5.1-5.7l25.1,22.4C318.5,385.7,316.8,387.5,315.2,389.4z"/>
					<path class="st2" d="M1504.1,384.4c-1.6-1.8-3.3-3.6-4.9-5.4l24.8-22.6c1.7,1.9,3.4,3.8,5.1,5.7L1504.1,384.4z"/>
					<path class="st2" d="M355.1,347.1l-23.8-23.7c1.8-1.8,3.6-3.6,5.4-5.4l23.5,24C358.6,343.7,356.9,345.4,355.1,347.1z"/>
					<path class="st2" d="M1468.7,347.2c-1.8-1.7-3.5-3.4-5.3-5.1l23.3-24.2c1.8,1.8,3.7,3.5,5.5,5.3L1468.7,347.2z"/>
					<path class="st2" d="M394.6,312.3l-22.2-25.2c1.9-1.7,3.8-3.4,5.8-5l22,25.4C398.3,309.1,396.5,310.7,394.6,312.3z"/>
					<path class="st2" d="M1430.9,312.4c-1.9-1.6-3.7-3.2-5.6-4.8l21.7-25.6c1.9,1.6,3.9,3.3,5.8,5L1430.9,312.4z"/>
					<path class="st2" d="M469,253.9l-18.8-27.9c2.1-1.4,4.2-2.8,6.4-4.2l18.5,28C473.1,251.2,471,252.6,469,253.9z"/>
					<path class="st2" d="M1349,250.3c-2-1.4-4.1-2.7-6.1-4l18.3-28.2c2.1,1.4,4.3,2.8,6.4,4.2L1349,250.3z"/>
					<path class="st2" d="M512.5,226.7l-16.9-29c2.2-1.3,4.4-2.6,6.6-3.8l16.6,29.2C516.7,224.2,514.6,225.4,512.5,226.7z"/>
					<path class="st2" d="M1305.2,223.3c-2.1-1.2-4.3-2.4-6.4-3.6l16.4-29.3c2.2,1.2,4.4,2.5,6.7,3.8L1305.2,223.3z"/>
					<path class="st2" d="M557.6,202.3l-15-30.1c2.3-1.1,4.5-2.3,6.8-3.4l14.7,30.2C562,200.1,559.8,201.2,557.6,202.3z"/>
					<path class="st2" d="M1259.7,199.3c-2.2-1.1-4.4-2.1-6.6-3.2l14.5-30.3c2.3,1.1,4.6,2.2,6.9,3.3L1259.7,199.3z"/>
					<path class="st2" d="M604.3,180.9l-13-31c2.4-1,4.7-2,7.1-2.9l12.7,31.1C608.8,179,606.5,179.9,604.3,180.9z"/>
					<path class="st2" d="M1212.8,178.2c-2.3-0.9-4.6-1.9-6.8-2.8l12.5-31.2c2.4,1,4.7,1.9,7.1,2.9L1212.8,178.2z"/>
					<path class="st2" d="M652.3,162.5l-11-31.8c2.4-0.8,4.8-1.6,7.2-2.5l10.7,31.8C656.9,161,654.6,161.7,652.3,162.5z"/>
					<path class="st2" d="M1164.6,160.2c-2.3-0.8-4.7-1.6-7-2.3l10.4-31.9c2.4,0.8,4.9,1.6,7.3,2.4L1164.6,160.2z"/>
					<path class="st2" d="M701.4,147.4l-8.9-32.4c2.5-0.7,4.9-1.3,7.4-2l8.5,32.5C706.1,146.1,703.7,146.7,701.4,147.4z"/>
					<path class="st2" d="M1115.3,145.4c-2.4-0.6-4.8-1.3-7.2-1.9l8.3-32.5c2.5,0.6,5,1.3,7.4,1.9L1115.3,145.4z"/>
					<path class="st2" d="M751.4,135.4l-6.8-32.9c2.5-0.5,5-1,7.5-1.5l6.5,33C756.2,134.4,753.8,134.9,751.4,135.4z"/>
					<path class="st2" d="M1065.1,133.8c-2.4-0.5-4.8-0.9-7.2-1.4l6.2-33c2.5,0.5,5,0.9,7.5,1.4L1065.1,133.8z"/>
					<path class="st2" d="M802,126.7l-4.6-33.3c2.5-0.3,5-0.7,7.6-1l4.3,33.3C806.9,126.1,804.4,126.4,802,126.7z"/>
					<path class="st2" d="M1014.4,125.6c-2.4-0.3-4.9-0.6-7.3-0.9l4-33.4c2.5,0.3,5.1,0.6,7.6,0.9L1014.4,125.6z"/>
					<path class="st2" d="M853.1,121.3l-2.5-33.5c2.6-0.2,5.1-0.4,7.6-0.5l2.2,33.5C858,120.9,855.6,121.1,853.1,121.3z"/>
					<path class="st2" d="M963.2,120.7c-2.4-0.2-4.9-0.3-7.3-0.4l1.8-33.5c2.5,0.1,5.1,0.3,7.6,0.5L963.2,120.7z"/>
				</g>
			</g>
		</g>
		<path id="SVGID_x5F_00000008849979718883741240000007840087966579606434_x5F_" class="st3" d="M1591.6,1078
			c-93.4,382.1-473.6,617.5-849,525.6s-604.1-476-510.6-858.1s473.6-617.5,849-525.6S1685.1,695.9,1591.6,1078z"/>
		<text>		<textPath  xlink:href="#SVGID_x5F_00000008849979718883741240000007840087966579606434_x5F_" startOffset="90.21%">
<tspan  class="st2" style="font-family:'OpenSans-Regular'; font-size:47.7141px;">  TUK  TUK  TUK  TUK  TUK  TUK  TUK  TUK  TUK  TUK </tspan>		</textPath>
</text>
	</g>
</g>
<g id="Layer_2">
</g>
</svg>
